<svg width="120" height="38" viewBox="0 0 120 38" fill="none" xmlns="http://www.w3.org/2000/svg">
<path d="M55.1303 9.71243H69.4109V15.6843H61.1022V21.6563H69.4109V27.6281H55.1303V9.71243Z" fill="#334155"/>
<path d="M72.2671 9.71243H86.5477V14.9054H78.239V15.944H86.5477V27.8878H72.2671V22.4352H80.5758V21.3966H72.2671V9.71243Z" fill="#334155"/>
<path d="M89.4038 9.71243H103.684V14.9054H95.3758V15.944H103.684V27.8878H89.4038V22.4352H97.7126V21.3966H89.4038V9.71243Z" fill="#334155"/>
<path d="M45.9163 33.4695L32.8879 37.0814L19.8953 33.4745L17 1H48.8147L45.9163 33.4695Z" fill="#334155"/>
<path d="M32.9074 34.3206L43.435 31.4019L45.9118 3.65527H32.9074V34.3206Z" fill="#334155"/>
<path d="M32.9074 15.6996H23.6375L23.9945 19.6824H32.9074V15.6996Z" fill="#EBEBEB"/>
<path d="M32.8936 7.63818H22.9202L23.2823 11.6211H32.9074V7.63818H32.8936Z" fill="#EBEBEB"/>
<path d="M32.8899 26.0482L28.4542 24.8505L28.1706 21.674H26.0152H24.1724L24.7304 27.9276L32.889 30.1925L32.9074 30.1874V26.0436L32.8899 26.0482Z" fill="#EBEBEB"/>
<path d="M38.5059 11.6211L38.1434 15.6996H32.8936V19.6824H37.798L37.3357 24.8479L32.8936 26.0469V30.1906L41.0587 27.9276L41.1186 27.2547L42.0545 16.7691L42.1517 15.6996L42.8707 7.63818H32.8936V11.6211H38.5059Z" fill="white"/>
</svg>
