<svg width="97" height="38" viewBox="0 0 97 38" fill="none" xmlns="http://www.w3.org/2000/svg">
<path d="M43.6737 9.53851H57.9544V15.5104H49.6456V21.4823H57.9544V27.4542H43.6737V9.53851Z" fill="#334155"/>
<path d="M60.8105 9.53851H75.0912V14.7315H66.7824V15.7701H75.0912V27.7139H60.8105V22.2613H69.1193V21.2227H60.8105V9.53851Z" fill="#334155"/>
<path d="M77.9473 9.53851H92.228V14.7315H83.9192V15.7701H92.228V27.7139H77.9473V22.2613H86.2561V21.2227H77.9473V9.53851Z" fill="#334155"/>
<path d="M34.4598 33.2955L21.4314 36.9074L8.4388 33.3006L5.54347 0.82608H37.3582L34.4598 33.2955Z" fill="#334155"/>
<path d="M21.4508 34.1467L31.9784 31.228L34.4553 3.48135H21.4508V34.1467Z" fill="#334155"/>
<path d="M21.4508 15.5257H12.181L12.5379 19.5085H21.4508V15.5257Z" fill="#EBEBEB"/>
<path d="M21.4371 7.46426H11.4637L11.8258 11.4472H21.4508V7.46426H21.4371Z" fill="#EBEBEB"/>
<path d="M21.4334 25.8743L16.9976 24.6765L16.7141 21.5H14.5586H12.7159L13.2739 27.7537L21.4325 30.0186L21.4508 30.0135V25.8696L21.4334 25.8743Z" fill="#EBEBEB"/>
<path d="M27.0493 11.4472L26.6869 15.5257H21.4371V19.5085H26.3415L25.8792 24.674L21.4371 25.873V30.0167L29.6022 27.7537L29.6621 27.0808L30.598 16.5952L30.6952 15.5257L31.4142 7.46426H21.4371V11.4472H27.0493Z" fill="white"/>
</svg>
