<svg width="108" height="44" viewBox="0 0 108 44" fill="none" xmlns="http://www.w3.org/2000/svg">
<path d="M14.9586 38.1156C13.1786 36.7156 11.2816 35.3756 9.98464 33.4856C7.25464 30.1536 5.15464 26.2856 3.71664 22.2406C2.84664 19.6036 2.55064 16.7776 1.43064 14.2426C0.260644 12.4026 1.63264 10.3896 3.64864 9.80461C4.54564 9.63161 6.12464 8.78461 4.21864 9.39061C2.51864 10.6436 2.34564 8.25261 4.09664 8.09061C5.29264 7.93061 5.73264 6.95361 5.32264 6.07361C4.03864 5.23561 8.43464 4.31761 6.22264 3.06761C3.91964 0.582609 9.44464 0.10361 8.08264 2.92761C7.75664 5.09761 11.9446 2.52761 10.9826 5.03561C11.9706 6.23961 14.6826 5.31061 14.6126 6.99861C16.0526 7.09861 16.5456 8.29861 17.8946 8.40061C19.2946 9.03261 21.8326 9.53061 22.3076 11.1076C20.9076 12.2076 17.7046 8.83761 17.5496 11.8796C17.9696 16.3756 17.8626 21.0066 19.5066 25.2866C20.2846 27.8786 22.1706 29.9186 23.8736 31.9366C25.5036 33.9136 27.7106 35.3066 29.9616 36.4766C31.9356 37.4066 34.0616 38.0236 36.2136 38.4116C37.0856 37.7446 38.6256 35.2636 39.9866 36.3096C40.0526 37.4866 37.2866 38.7676 39.8566 38.6376C41.3566 38.1816 42.4136 39.8046 43.6566 38.3406C44.8016 39.6976 48.4166 37.4746 47.6026 40.2476C46.5006 40.9476 44.9026 40.5276 43.7896 41.5076C41.9696 40.6076 40.5216 42.3196 38.5066 42.1026C36.2696 42.5026 33.9926 42.6646 31.7246 42.6676C28.0026 42.3736 24.2026 42.2496 20.6626 40.9546C18.6676 40.3746 16.7226 39.2386 14.9686 38.1026L14.9586 38.1156ZM18.1016 39.4786C20.0486 40.3186 21.9536 41.2086 24.0876 41.4756C27.4736 41.9456 30.9706 42.6716 34.3676 42.0106C32.8296 41.3166 31.2396 42.2806 29.7076 41.5146C27.8706 41.9096 25.9076 41.4146 24.0296 41.1686C21.9056 40.2226 19.6126 39.5726 17.6236 38.3436C15.1366 37.4356 18.9086 39.5086 19.5806 39.6766C21.1346 40.5586 17.8806 39.2246 17.4106 38.8566C16.1086 38.1266 15.9436 38.2786 17.2806 39.0196C17.5506 39.1776 17.8166 39.3426 18.0986 39.4776L18.1016 39.4786ZM14.3956 36.8586C16.2836 37.5586 14.3876 35.5316 13.5236 35.6586C13.1406 34.9936 12.0596 34.5736 12.8216 34.2186C11.4516 34.6946 11.3846 32.4186 10.7416 32.7356C9.29164 32.2776 10.1776 30.6556 8.44864 29.6576C8.29064 28.6076 6.73164 27.6976 6.23564 26.1136C6.01564 25.3136 4.47364 22.9736 5.42064 25.1406C6.22664 27.2266 7.64564 29.0136 8.82664 30.7976C9.74264 32.4976 10.8266 34.2736 12.4966 35.3326C13.0596 35.8726 13.6026 36.6996 14.3966 36.8696L14.3956 36.8586ZM8.95964 30.8886C9.30464 31.5056 9.02464 30.6036 8.95964 30.8886ZM16.6566 37.6956C17.0746 37.5086 16.0566 37.4596 16.6566 37.6956ZM17.6806 38.0696C17.5746 37.5536 17.2126 38.3696 17.6806 38.0696ZM18.9636 38.6046C19.5636 38.0246 18.0236 38.2376 18.9636 38.6046ZM21.1616 39.8296C21.5316 39.2816 19.9746 39.6236 21.1616 39.8296ZM16.9416 36.8876C17.8886 36.2746 15.7166 36.8776 16.9416 36.8876ZM17.9036 37.3676C17.8766 37.0446 17.5616 37.5126 17.9036 37.3676ZM22.7106 40.3676C23.4836 40.8556 27.2246 41.4376 24.8826 40.5676C24.4896 40.6496 20.5396 39.4496 22.7106 40.3676ZM15.0806 34.4236C15.0056 34.0996 13.8806 34.0636 15.0806 34.4236ZM17.3176 35.7286C17.9006 35.3216 16.1176 35.4146 17.3176 35.7286ZM19.2006 36.8826C20.0366 36.5676 17.8456 36.5666 19.2006 36.8826ZM14.1686 33.4326C15.0756 34.1286 17.8266 33.5326 15.5686 33.0176C14.5366 32.4676 12.2086 32.0906 13.7956 33.3496L14.1796 33.4326H14.1686ZM20.4756 37.2826C20.8536 36.6396 18.8906 36.9146 20.4756 37.2826ZM18.5596 35.7596C20.7766 36.3856 16.6946 34.3566 18.0126 35.5276L18.3046 35.6606L18.5596 35.7596ZM22.4016 37.9796C24.5016 37.9996 20.5046 37.6796 22.4016 37.9796ZM13.3616 32.2176C13.2796 31.8176 12.8436 32.2496 13.3616 32.2176ZM25.9546 39.9716C26.0106 39.2656 25.2696 40.4976 25.9546 39.9716ZM16.9546 34.4116C16.8266 34.0396 16.2986 34.3956 16.9546 34.4116ZM13.5696 31.9716C14.7746 31.8986 11.9196 31.4416 13.5696 31.9716ZM9.56964 29.3796C9.41964 28.7996 8.26964 28.3396 9.56964 29.3796ZM20.0966 36.0596C19.9926 36.1146 19.8766 35.8076 20.0966 36.0596ZM26.6486 40.0796C26.6286 39.6946 26.2916 40.2246 26.6486 40.0796ZM19.5186 35.4596C19.6366 34.9636 18.4906 35.3096 19.5186 35.4596ZM14.6386 32.3656C15.5356 32.2696 13.2006 31.7596 14.6386 32.3656ZM22.8956 37.4956C24.2936 36.9416 21.5326 37.2256 22.8956 37.4956ZM18.6016 34.5806C20.2016 34.7876 16.6846 33.4836 18.2476 34.4636L18.6016 34.5806ZM24.1996 38.0226C25.7046 37.1246 25.2076 40.1286 26.7516 38.2766C28.2736 37.1646 25.4366 39.6516 27.3116 38.4746C28.6696 37.5666 30.6736 38.9046 31.9396 39.3406C32.8396 39.2966 33.7356 40.1276 34.6696 39.6206C36.4666 39.1366 31.1546 38.9026 32.5466 38.0446C30.9026 38.5246 29.6866 37.4746 28.8786 36.4206C27.0336 35.9946 24.9016 35.0506 23.9806 33.4186C23.6046 32.8066 24.5226 33.5056 23.6566 32.5036C22.5566 31.5156 21.9906 30.4036 21.2446 29.1916C20.3446 28.7166 20.2486 27.3166 20.1586 29.1456C20.1656 27.9916 19.0826 27.2156 18.8186 27.5376C18.8136 26.4376 19.9786 26.9836 19.1636 26.1616C18.9886 25.0096 18.4106 23.8096 18.2376 22.5096C17.9676 21.8836 18.1996 20.5396 17.3176 21.9596C16.9976 23.4596 17.2116 20.1176 17.7116 21.2196C18.3676 20.0956 17.4756 20.2196 17.4396 20.3836C17.8666 19.4356 17.7096 18.0886 17.3276 18.6036C17.5556 17.5976 17.6876 14.9036 16.9876 15.3806C17.4126 14.3286 17.7926 10.5676 15.9476 12.0006C15.2006 12.0106 13.9076 12.2706 13.2956 12.5756C15.2126 13.6326 13.1026 12.9576 12.3206 12.7896C12.2206 13.7676 11.4456 13.3456 10.4806 13.3546C12.0246 13.5546 9.72864 14.9346 8.84464 14.3946C7.69464 14.9446 9.84464 16.3146 8.86764 16.7406C8.98764 17.3786 7.10764 16.5106 7.25364 17.9866C6.13764 17.5166 7.10064 19.7366 7.65964 18.9866C9.55764 19.5006 8.99564 20.6716 9.04364 21.7846C8.74364 22.4326 7.51664 20.2606 8.77364 20.3616C7.77364 18.7616 7.67764 19.7796 6.85364 20.5276C6.65364 20.5816 8.95364 21.5916 7.51564 22.0906C8.78064 22.2866 8.81764 23.3936 9.07564 24.0936C9.83564 24.8856 9.67964 23.2186 10.5896 24.1716C10.0136 23.3216 7.53964 21.7716 9.53164 22.2756C9.52164 21.4226 9.17164 20.7336 9.78164 20.7506C10.3866 19.6566 9.14764 23.4506 10.5116 22.0586C10.8886 21.8936 10.9816 20.9636 11.6616 22.1466C12.6456 23.1166 12.0176 23.8166 10.6286 22.9296C10.8766 23.7736 12.4866 24.0736 12.1836 25.3926C12.5036 26.5526 12.9536 26.1246 13.3436 26.0586C13.6506 27.1846 13.8236 26.3566 13.8386 25.8186C15.2426 26.1186 14.9136 26.9486 15.3536 27.5186C16.3216 27.9546 13.9686 24.5586 15.6296 26.4986C17.3776 28.0786 16.2856 28.7356 14.7166 28.4826C15.7096 28.4026 16.0286 29.8246 17.2706 29.7746C18.4026 30.3146 19.1706 32.3826 17.2176 31.5216C16.5406 30.9216 14.1436 30.1576 16.1016 31.3186C17.9076 32.1566 19.3446 32.6566 21.0876 33.7186C22.3346 34.6186 22.8736 35.6186 23.3456 35.8306C22.2956 36.3306 20.1856 35.4306 21.7536 35.1556C20.7756 34.9776 19.6756 34.4826 20.6116 35.7006C21.4086 36.3666 23.4336 36.2956 23.7976 36.3706C23.4896 37.0486 22.9616 37.1026 23.8096 37.1546C22.8636 37.6596 24.1136 37.7376 24.2096 38.0246L24.1996 38.0226ZM22.2646 32.5566C21.6886 31.9536 21.5396 30.8266 22.1616 31.8066C22.4816 31.9366 23.1846 33.6506 22.2646 32.5566ZM28.5686 36.5606C28.9286 36.5366 28.5786 36.8336 28.5686 36.5606ZM21.3556 31.0806C21.5626 31.7836 21.3326 30.1806 21.3556 31.0806ZM20.7296 30.2386C21.6426 30.6346 20.0046 28.8386 20.7296 30.2386ZM13.1366 24.9986C13.5626 24.8846 13.3366 25.7266 13.1366 24.9986ZM19.1806 28.2736C19.4876 29.0966 19.4406 27.2916 19.1806 28.2736ZM14.9106 25.3036C15.5406 25.8036 14.6106 24.7616 14.9106 25.3036ZM18.5736 26.4776C17.8876 24.9406 19.0606 25.6376 18.7266 26.7296L18.5736 26.4776ZM12.2556 22.2646C11.9486 21.7596 11.4416 20.2806 11.6056 19.8286C11.7526 20.5646 13.1696 22.9956 12.2996 20.8356C11.3396 19.0356 13.4496 21.4226 13.6656 21.8756C13.7656 22.3256 13.0726 21.7526 13.5426 22.8056C12.6846 21.6056 13.0366 23.4666 12.2556 22.2646ZM10.3036 20.9186C10.7496 21.7226 10.3836 19.7456 10.3036 20.9186ZM11.1816 21.2216C11.8816 22.4556 11.6016 20.3366 11.1816 21.2216ZM9.06864 19.5876C8.34164 18.8646 7.81564 18.1876 9.10364 19.1376C9.59864 19.1576 8.00164 17.6236 9.22364 18.6506C10.5076 18.8846 9.85764 20.7566 9.06964 19.5866L9.06864 19.5876ZM10.1686 19.5576C10.5906 19.1376 10.3926 19.9696 10.1686 19.5576ZM10.8526 19.7756C11.6296 20.2786 10.2126 18.5756 10.8526 19.7756ZM9.49464 18.4786C7.38164 16.5966 12.1496 19.4616 9.83964 18.8266L9.49464 18.4786ZM15.5496 21.9956C14.6346 21.4476 15.3066 18.1356 15.6196 20.4006C16.5196 20.1126 15.5696 21.5706 16.2326 21.5566C16.1286 22.4766 15.8326 22.8066 15.5506 21.9966L15.5496 21.9956ZM17.7726 23.3156C17.9606 23.9986 17.8726 22.3156 17.7726 23.3156ZM17.3726 22.9306C17.4726 22.5046 17.3826 23.4326 17.3726 22.9306ZM9.87264 17.8556C8.51464 15.9826 13.8186 19.7506 10.7426 18.3306C10.4226 18.2456 10.0426 18.2156 9.87264 17.8556ZM14.1856 20.1416C14.4726 20.4016 14.0556 18.5646 14.1856 20.1416ZM17.4596 22.2416C17.7126 21.3436 17.4796 22.8356 17.4596 22.2416ZM10.0816 17.1396C10.8886 16.9666 13.4246 18.5556 11.0956 17.5936C10.8356 17.3066 10.2956 17.4376 10.0816 17.1396ZM17.0116 20.5926C17.0976 18.9796 17.4936 19.6296 17.0156 20.8246L17.0116 20.5926ZM10.6836 16.5776C11.0136 16.0956 9.80964 14.3976 10.8566 15.9776C11.3086 16.3376 12.1566 16.5776 11.4096 16.7306C12.6096 17.7806 11.1096 17.0146 10.6846 16.5866L10.6836 16.5776ZM16.6696 20.0776C16.8966 18.2396 16.8696 21.1536 16.6696 20.0776ZM9.99664 14.8696C10.2486 14.7616 10.1296 15.2046 9.99664 14.8696ZM11.5586 15.7996C12.2986 16.7396 11.9606 14.9556 11.5586 15.7996ZM15.9626 18.2496C16.0456 18.7196 15.9586 17.9266 15.9626 18.2496ZM15.7076 17.6856C16.2776 18.4836 15.1076 16.1776 15.7076 17.6856ZM15.3326 16.6856C15.6826 17.4686 15.2306 16.0626 15.3326 16.6856ZM15.9326 15.6926C15.5126 14.9526 16.4626 12.4356 16.5686 13.9976C16.1256 15.2146 16.4406 15.8946 16.7486 14.2626C17.3186 12.9786 16.6256 16.7986 15.9326 15.6926ZM16.5606 11.9476C16.7436 11.7226 16.6006 12.2176 16.5606 11.9476ZM15.5106 32.6046C15.5426 32.7416 15.2626 32.3876 15.5106 32.6046ZM17.6706 33.6966C18.8706 33.9966 18.8666 33.5106 17.7706 33.3626C17.1876 32.8196 15.3436 32.2426 16.9936 33.2956C17.0936 33.5726 17.4476 33.5656 17.6606 33.6956L17.6706 33.6966ZM13.4066 30.8636C14.0666 31.3576 15.8986 32.2616 14.3496 31.0636C14.8726 30.4556 13.3496 30.1336 13.8546 29.7256C12.5696 28.9386 12.8406 29.0096 13.7416 29.0256C12.1976 28.3256 13.9646 28.3876 13.8816 28.0326C13.2866 27.9156 10.9236 26.9826 12.3136 28.1086C10.9006 27.3886 11.9766 28.3766 11.5496 28.2736C10.1046 27.8796 12.8356 29.3736 11.3196 29.0036C12.1476 29.6596 13.5496 30.6856 11.6696 29.6976C11.4226 30.0546 13.0156 30.5946 13.4066 30.8656V30.8636ZM15.6646 32.1616C18.4106 33.0456 14.3176 31.0796 15.6646 32.1616ZM27.2266 39.1656C27.2626 38.6206 26.8516 39.6306 27.2266 39.1656ZM28.4266 39.6656C29.0606 39.0526 28.4526 40.6436 29.4766 39.5156C29.4866 38.7076 29.4466 38.2306 28.3006 39.2126C27.9846 39.3886 27.8436 40.1316 28.4266 39.6656ZM9.58064 27.8416C9.38564 27.0766 8.21664 27.0816 9.58064 27.8416ZM10.8486 28.6716C10.3786 27.8916 9.16864 27.9646 10.8486 28.6716ZM18.0686 33.0256C18.7736 33.6516 21.3056 33.4856 18.9246 33.1036C18.5726 32.5836 16.6866 32.7076 18.0686 33.0256ZM27.9916 39.1556C29.0766 38.2556 26.9416 39.5616 27.9916 39.1556ZM30.2476 40.7056C30.2546 40.4136 29.7796 40.8336 30.2476 40.7056ZM30.2516 40.3056C31.4516 39.0336 29.0886 40.3806 30.2516 40.3056ZM6.45864 25.2286C5.43464 23.7686 5.82264 23.1116 4.83464 21.9286C4.64664 21.0156 3.14064 18.9466 4.05464 21.1286C4.89264 22.4116 5.14064 24.3966 6.45764 25.2286H6.45864ZM29.8746 39.8926C32.0746 38.4646 28.9676 39.2706 29.8746 39.8926ZM31.5616 40.5526C32.6686 39.6026 30.8616 40.3546 31.5616 40.5526ZM9.20464 26.2156C9.52064 25.7456 8.38664 26.1556 9.20464 26.2156ZM31.2096 40.0906C32.2816 39.3906 30.9626 39.5056 31.0156 40.1536L31.2096 40.0906ZM16.6676 30.9356C16.6306 30.4676 16.1006 30.9756 16.6676 30.9356ZM17.5656 31.4526C17.2796 30.8746 17.1256 31.5526 17.5656 31.4526ZM32.9286 40.5686C34.3016 39.5686 32.0986 40.3686 32.6416 40.7566L32.9286 40.5686ZM32.4026 40.3146C33.5226 39.3776 31.2226 40.7296 32.4026 40.3146ZM35.0896 42.1026C35.8396 41.6006 34.1766 41.9406 35.0896 42.1026ZM9.89264 25.8856C10.8986 26.1106 13.9146 28.3636 12.1356 26.0416C11.2356 25.7716 11.7706 23.5446 10.8416 23.9376C11.4656 24.9806 11.3546 25.4226 10.0446 24.7676C8.39964 23.9636 9.11964 25.1646 9.44264 25.4976C9.00264 25.5976 10.0226 25.8776 9.89264 25.8976V25.8856ZM5.30764 22.2656C5.48764 21.5196 3.64764 18.1656 4.43764 20.5856C4.72264 21.0926 4.69264 22.0526 5.30764 22.2656ZM13.7236 27.4656C13.6986 27.4036 13.2036 27.0326 13.7236 27.4656ZM14.9996 27.7626C14.9996 26.9626 13.5996 27.4426 14.9996 27.7626ZM26.0596 34.7346C25.8596 34.1946 25.2256 34.7226 26.0596 34.7346ZM26.5896 35.1226C26.5096 34.8206 26.2826 35.1826 26.5896 35.1226ZM30.9726 37.8756C31.3926 37.5756 30.4466 37.8356 30.9726 37.8756ZM7.59764 22.8506C8.80364 22.3836 6.30564 22.5176 7.59764 22.8506ZM25.0976 33.8686C25.0836 33.0886 24.3276 34.0636 25.0976 33.8686ZM7.13064 21.7386C7.90464 21.4786 6.41364 21.5666 7.13064 21.7386ZM9.37864 22.8386C9.36564 22.5826 9.14164 22.9366 9.37864 22.8386ZM36.7926 39.6456C37.7886 39.4436 40.0596 40.1526 40.4256 39.3816C39.2256 39.3516 36.2416 38.5276 36.1006 39.5766L36.3656 39.6186L36.7926 39.6456ZM10.0926 23.0076C10.1106 22.2076 9.47564 22.9776 10.0926 23.0076ZM4.19264 18.9076C3.92464 17.4006 3.17264 18.6796 4.19264 18.9076ZM5.59264 19.2616C5.61064 18.7776 4.29264 18.8256 5.59264 19.2616ZM6.39764 19.6576C6.21764 19.8946 6.16464 19.4576 6.39764 19.6576ZM11.4676 22.9076C11.7076 22.6876 10.9026 22.7456 11.4676 22.9076ZM5.85264 18.7656C5.71564 17.6276 4.21864 18.5956 5.85264 18.7656ZM2.95264 16.8896C2.91264 16.3646 2.67064 17.0876 2.95264 16.8896ZM3.37264 16.5656C3.30264 15.9426 3.00264 16.6436 3.37264 16.5656ZM5.74764 17.9826C6.75264 17.5886 3.91764 17.1666 5.54264 17.9086L5.74764 17.9826ZM37.5476 37.6196C38.1906 37.0196 36.7316 37.4376 37.5476 37.6196ZM41.3876 39.6196C41.6456 38.8596 40.7376 39.7196 41.3876 39.6196ZM5.98764 16.7396C6.09364 16.0026 5.19064 16.8866 5.98764 16.7396ZM2.60764 14.4746C2.42764 13.4346 2.45164 11.6076 4.18764 12.2246C1.87064 12.6846 5.79264 15.1046 5.28764 13.1946C6.26264 13.2426 7.19464 12.6186 6.68264 13.5646C8.60264 13.3646 9.93464 11.6876 11.7896 11.9216C13.2346 11.7296 14.8146 11.5846 16.3716 11.0016C17.6516 10.9096 18.8846 9.53161 18.1716 8.71361C16.4256 8.56561 14.5976 8.78361 12.6686 9.16861C10.5306 9.61261 8.58864 10.4566 6.43064 10.8186C4.32664 11.1016 6.85264 11.5966 6.25064 11.7186C5.15364 12.0986 7.55064 12.3556 6.10864 12.7586C5.21264 12.5886 4.27864 12.2806 4.66264 11.3356C2.64864 11.5986 0.877644 12.4336 2.46964 14.4836L2.58764 14.4846L2.60764 14.4746ZM7.46264 12.0026C7.93264 10.2626 9.99264 13.4346 8.23564 12.2346C8.03564 12.0766 7.68064 11.9496 7.46264 12.0026ZM7.55464 11.1586C8.23464 10.6516 7.91664 11.4436 7.55464 11.1586ZM8.41964 11.1726C8.48164 10.3726 10.4016 11.5966 8.73564 11.4606L8.41964 11.1726ZM9.60364 10.6966C10.0366 10.1906 9.72964 11.1446 9.60364 10.6966ZM9.90664 10.4936C10.6266 9.62861 13.9836 9.94061 11.5266 10.4086C10.8666 9.91261 10.3636 10.7006 9.90664 10.4936ZM14.2866 9.81861C16.4646 10.6586 14.1786 7.45461 14.2866 9.81861ZM15.5296 9.81161C15.9846 8.61161 17.2946 9.33361 15.7296 9.57161C15.7626 9.69961 15.6836 10.1876 15.5296 9.81161ZM5.49664 16.1286C6.85464 15.2966 4.05664 15.4066 5.49664 16.1286ZM6.50164 16.4066C6.97764 15.9006 5.46564 16.2016 6.50164 16.4066ZM3.57264 14.3156C4.34864 13.7186 2.65264 14.0886 3.57264 14.3156ZM43.6726 39.4016C43.6956 38.7096 43.0796 39.7016 43.6726 39.4016ZM39.5976 36.6216C39.7136 35.8256 39.0736 36.6916 39.5976 36.6216ZM44.7926 39.6716C45.8776 39.6756 48.0796 39.3336 45.7196 39.3346C45.3496 39.3916 43.5616 39.3806 44.7926 39.6716ZM7.40664 15.9176C8.28464 15.8576 8.77964 14.9496 7.23664 15.0016C4.84464 14.7546 9.33664 15.8216 6.92964 15.5156C6.60564 15.7306 7.38764 15.9776 7.40664 15.9176ZM8.17964 16.3096C8.08764 15.7466 7.90764 16.6096 8.17964 16.3096ZM9.09764 13.8636C9.47764 13.3906 8.56964 13.7376 9.09764 13.8636ZM6.17764 8.98361C7.74564 8.45161 9.87764 7.85361 10.6276 9.24661C9.87464 8.34061 10.3236 7.44861 11.0346 8.77361C12.0406 10.1136 12.5346 8.17361 11.8896 7.71361C12.6356 8.63961 13.4826 9.07761 12.3896 7.77361C13.5896 6.34361 10.0096 7.96061 9.19764 7.94361C8.79764 8.11861 5.16764 8.87161 6.17764 8.98361ZM7.09764 7.22561C7.99164 6.55161 10.1976 7.62761 8.77764 6.55561C8.63964 6.43361 5.68964 7.36961 7.09764 7.22561ZM10.3576 7.36061C11.4026 7.38661 9.90765 5.95461 11.1526 6.60361C10.9486 5.93561 9.70264 5.81061 9.09264 5.54361C8.74764 6.14361 9.79264 7.36861 10.3586 7.36061H10.3576ZM7.67064 4.40261C8.03264 3.90261 7.03564 4.65261 7.67064 4.40261ZM9.00264 4.72261C10.6886 4.49961 8.57264 3.99761 8.66264 4.70461L9.00264 4.72261ZM6.51564 2.77761C5.32864 1.22761 8.74864 3.03761 7.54164 1.41461C6.52664 0.606609 5.54164 2.31461 6.51564 2.77761ZM21.7456 10.9806C22.2896 10.0166 19.4986 9.68061 21.3796 10.6406C21.5526 10.6976 21.5136 11.0486 21.7456 10.9806ZM49.7526 11.2356C49.5656 11.9736 49.4506 13.2106 49.4066 14.9356C49.4066 15.2756 49.2526 15.4476 48.9446 15.4476C48.6366 15.4476 48.4216 15.2976 48.3006 15.0016C47.9706 14.1986 47.6586 13.6386 47.3606 13.3186C47.0086 12.9456 46.5406 12.7186 45.9586 12.6426C45.3316 12.5426 43.7706 12.4926 41.2746 12.4926C40.7026 12.4926 40.3286 12.5526 40.1546 12.6746C40.0546 12.7516 39.9896 12.9166 39.9896 13.1696V20.6416C39.9896 20.8946 40.1496 21.0146 40.4666 21.0046L44.7226 20.8066C45.0856 20.7616 45.3306 20.6446 45.4566 20.4516C45.5826 20.2586 45.7066 19.7516 45.8266 18.9586C45.9036 18.5186 46.1616 18.3586 46.6016 18.4586C46.9756 18.5356 47.1356 18.7056 47.0816 18.9586C46.7736 20.4546 46.6736 22.4006 46.7836 24.7986C46.7956 25.0836 46.6136 25.2386 46.2396 25.2606C45.9316 25.2936 45.7396 25.1286 45.6626 24.7656C45.3776 23.3916 44.8456 22.6656 44.0626 22.5626C43.2796 22.4596 42.0246 22.4226 40.2766 22.4226C40.0786 22.4226 39.9806 22.4926 39.9806 22.6366V30.0596C39.9806 30.6096 40.1836 30.9836 40.5806 31.1796C40.9006 31.3446 41.5876 31.4936 42.6426 31.6256C43.1826 31.6806 43.4176 31.9176 43.3426 32.3256C43.2756 32.6886 42.7926 32.8316 41.8906 32.7556C39.2846 32.5556 37.1346 32.5576 35.4406 32.7886C34.9676 32.8536 34.7406 32.6616 34.7406 32.2116C34.7406 31.9256 34.9766 31.7616 35.4406 31.7166C36.5186 31.5966 37.0566 30.6496 37.0566 28.8796V14.7596C37.0566 14.0346 36.9266 13.4766 36.6696 13.0856C36.4126 12.6946 35.9296 12.3396 35.2266 12.0216C34.7866 11.8236 34.6216 11.5546 34.7316 11.2136C34.7866 11.0056 34.8746 10.8896 34.9946 10.8676C35.0946 10.8346 35.3966 10.8576 35.8686 10.9336C36.5616 11.0336 38.1956 11.0986 40.7686 11.0986L48.6386 10.9006C49.3746 10.8556 49.7436 10.9166 49.7436 11.0806C49.7436 11.1256 49.7376 11.1686 49.7266 11.2126L49.7526 11.2356ZM60.4506 32.1756C60.4506 32.6156 60.2036 32.8076 59.7086 32.7526C58.1916 32.6096 56.3116 32.6326 54.0686 32.8176C53.6186 32.8626 53.3406 32.8506 53.2346 32.7856C53.1286 32.7206 53.0786 32.5386 53.0786 32.2406C53.0786 31.9776 53.3786 31.7546 53.9766 31.5726C54.5746 31.3906 54.8766 30.8496 54.8766 29.9486V15.0206C54.8766 14.1206 54.7466 13.4756 54.4896 13.0566C54.2326 12.6376 53.7766 12.3146 53.1296 12.0846C52.7896 11.9646 52.6176 11.7926 52.6176 11.5726C52.6176 11.2426 52.8646 10.9956 53.3596 10.8306C54.1076 10.5886 54.8836 10.2156 55.6866 9.70861C56.3466 9.31261 56.7646 9.11561 56.9396 9.11561C57.3466 9.11561 57.5396 9.39561 57.5396 9.95561C57.5151 10.5055 57.4927 11.0555 57.4726 11.6056L57.4406 14.8226L57.5056 29.5526C57.5056 30.2226 57.6706 30.7106 58.0006 31.0126C58.3306 31.3146 58.8976 31.5156 59.7006 31.6126C60.1956 31.6676 60.4426 31.8546 60.4426 32.1726L60.4506 32.1756ZM75.3706 31.2026C75.3706 31.4326 74.9506 31.7826 74.1106 32.2496C73.2706 32.7166 72.5956 32.9496 72.0906 32.9496C71.6606 32.9496 71.2826 32.7416 70.9526 32.3226C70.6226 31.9036 70.3906 31.6966 70.2596 31.6966C70.1596 31.6966 69.6396 31.9226 68.6926 32.3726C67.7456 32.8226 66.7956 33.0496 65.8396 33.0496C64.9396 33.0496 64.1846 32.7846 63.5796 32.2496C62.9196 31.6666 62.5796 30.8746 62.5796 29.8736C62.5796 27.9706 64.7576 26.6076 69.1126 25.7736C69.8596 25.6306 70.2396 25.3276 70.2496 24.8666L70.2826 23.8106C70.3486 22.0076 69.5526 21.1056 67.8906 21.1056C67.4176 21.1056 66.9706 21.5286 66.5456 22.3756C66.1206 23.2226 65.5156 23.6786 64.7236 23.7456C63.8236 23.8326 63.3706 23.4536 63.3706 22.6056C63.3706 22.0776 64.0406 21.4626 65.3836 20.7576C66.7916 20.0216 68.1436 19.6526 69.4416 19.6526C71.6736 19.6526 72.7786 20.7146 72.7566 22.8366L72.6896 29.6316C72.6796 30.3466 72.9816 30.7036 73.5966 30.7036C73.7166 30.7036 73.9496 30.6766 74.2896 30.6216L74.8846 30.5396C75.2026 30.5396 75.3626 30.7546 75.3626 31.1836L75.3706 31.2026ZM70.2906 27.4426C70.3006 27.1676 70.2376 26.9856 70.0906 26.8986C69.9436 26.8116 69.7366 26.7936 69.4406 26.8486C66.7906 27.3216 65.4646 28.1856 65.4646 29.4486C65.4646 30.7116 66.1516 31.3456 67.5266 31.3456C68.0766 31.3456 68.6436 31.2416 69.2266 31.0326C69.9096 30.7896 70.2496 30.4986 70.2496 30.1576L70.2826 27.4526L70.2906 27.4426ZM87.6326 29.3156C87.6326 30.4816 87.1826 31.4086 86.2876 32.0956C85.3926 32.7826 84.1686 33.1156 82.6176 33.1156C81.5753 33.1147 80.5359 33.0041 79.5166 32.7856C78.6166 32.5876 78.1086 32.4056 77.9666 32.2416C77.8786 32.0866 77.8346 31.3346 77.8346 29.9816C77.8346 29.3986 77.9666 29.0966 78.2306 29.0746C78.4946 29.0416 78.7306 29.1746 78.9066 29.5026C79.7316 30.9426 81.0626 31.6626 82.8986 31.6626C84.4486 31.6626 85.2236 31.1226 85.2236 30.0446C85.2236 29.5726 85.0486 29.1766 84.6956 28.8576C84.3106 28.4946 83.5636 28.0706 82.4526 27.5876C80.8466 26.8726 79.7746 26.2476 79.2356 25.7076C78.6526 25.1356 78.3616 24.3676 78.3616 23.4076C78.3616 22.2196 78.8176 21.3076 79.7316 20.6376C80.5786 19.9996 81.7116 19.6806 83.1286 19.6806C83.9476 19.6735 84.7654 19.7452 85.5706 19.8946C86.3626 20.0376 86.7746 20.2126 86.8076 20.4226C86.8946 21.0376 87.0776 21.9286 87.3516 23.0956C87.3846 23.2376 87.2296 23.3536 86.8896 23.4416C86.5266 23.5186 86.2846 23.4576 86.1636 23.2616C85.2956 21.8416 84.1956 21.1336 82.8636 21.1336C81.3576 21.1336 80.6036 21.6176 80.6036 22.5856C80.6036 23.1256 80.8076 23.5536 81.2036 23.8716C81.5666 24.1466 82.4186 24.5766 83.7606 25.1596C85.1686 25.7646 86.1246 26.3096 86.6306 26.7916C87.2906 27.4186 87.6306 28.2616 87.6306 29.3156H87.6326ZM107.038 32.2016C107.038 32.5866 106.778 32.8016 106.262 32.8016L103.244 32.9666C102.628 33.0866 102.188 33.0116 101.924 32.7366C100.186 30.8666 98.7116 28.9096 97.5036 26.8636C97.4036 26.6886 97.2786 26.5996 97.1236 26.5996C96.9366 26.5996 96.6236 26.7646 96.1516 27.0946C95.6336 27.3796 95.3756 27.7876 95.3756 28.3146L95.4086 29.9326C95.4306 30.6356 95.6056 31.0976 95.9356 31.3176C96.1656 31.4726 96.7006 31.5926 97.5356 31.6806C98.0526 31.7466 98.3116 31.9406 98.3116 32.2576C98.3116 32.5106 98.2716 32.6576 98.1876 32.7276C98.1036 32.7976 97.8876 32.8016 97.5356 32.7676C96.4356 32.6676 94.5776 32.7236 91.9606 32.9326C91.3006 32.9876 90.9436 32.9046 90.8886 32.6856C90.8666 32.6086 90.8556 32.4986 90.8556 32.3556C90.8556 32.0156 91.1916 31.7556 91.8626 31.5816C92.4676 31.4266 92.7696 30.7176 92.7696 29.4536V15.0356C92.7696 14.1356 92.6816 13.5076 92.5046 13.1556C92.2626 12.7056 91.7566 12.3526 90.9866 12.0996C90.6246 11.9796 90.4426 11.7996 90.4426 11.5996C90.4426 11.2796 90.7026 11.0326 91.2176 10.8576C92.0487 10.5774 92.8415 10.1944 93.5776 9.71761C94.1826 9.32261 94.5576 9.12361 94.6976 9.12361C95.1496 9.12361 95.3746 9.40861 95.3746 9.98161C95.3746 9.90361 95.3686 10.4486 95.3576 11.6136L95.3416 14.8476L95.3746 25.1726C95.3746 25.4586 95.4516 25.6006 95.6046 25.6006C95.7696 25.6006 96.0226 25.4586 96.3646 25.1726L99.7286 22.3686C99.9936 22.0936 100.125 21.8736 100.125 21.7086C100.125 21.4126 99.6796 21.2026 98.7896 21.0826C98.4046 21.0376 98.2226 20.8226 98.2446 20.4386C98.2776 20.0536 98.4706 19.8886 98.8216 19.9436C99.6146 20.0436 100.769 20.1136 102.286 20.1256L105.436 20.1416C105.776 20.1516 105.936 20.3556 105.936 20.7416C105.936 21.1146 105.666 21.3186 105.128 21.3416C104.28 21.3736 103.483 21.5656 102.736 21.9186C101.691 22.3906 100.574 23.2216 99.3856 24.4186C99.2986 24.4846 99.2536 24.5686 99.2536 24.6656C99.2536 24.8196 99.4406 25.1886 99.8156 25.7716C101.19 27.8716 102.488 29.4386 103.708 30.5056C104.488 31.1756 105.22 31.5116 105.901 31.5116C106.407 31.5116 106.721 31.5466 106.841 31.6196C106.961 31.6926 107.023 31.8796 107.023 32.1876L107.038 32.2016Z" fill="#334155"/>
</svg>
