<svg width="120" height="38" viewBox="0 0 120 38" fill="none" xmlns="http://www.w3.org/2000/svg">
<path d="M6 10.415H11.7V16.045H16.913V10.415H22.613V27.465H16.913V21.765H11.7V27.465H6V10.415ZM30.107 16.07H25.08V10.416H40.816V16.07H35.796V27.467H30.096V16.07H30.107ZM43.314 10.415H49.257L52.913 16.415L56.565 10.415H62.5V27.465H56.824V19.013L52.904 25.076H52.806L48.9 19.014V27.466H43.324L43.314 10.415ZM65.344 10.415H71.044V21.84H79.059V27.476H65.345L65.344 10.415Z" fill="#334155"/>
<path d="M81.77 1H113.407L110.525 33.288L97.57 36.88L84.65 33.293L81.77 1Z" fill="#334155"/>
<path d="M108.06 31.233L110.523 3.64099H97.6V34.135L108.06 31.233Z" fill="#334155"/>
<path d="M92.35 15.618L91.988 11.562H97.6V7.60199H87.67L88.738 19.579H97.6V15.619L92.35 15.618ZM88.904 21.56L89.459 27.78L97.572 30.032L97.59 30.027V25.907L97.573 25.912L93.173 24.712L92.891 21.552H90.748L88.904 21.56Z" fill="#EBEBEB"/>
<path d="M106.686 16.68L106.783 15.616H97.577V19.576H102.454L101.994 24.713L97.577 25.905V30.025L105.697 27.775L105.757 27.105L106.686 16.68ZM97.586 11.562H107.153L107.508 7.59201H97.586V11.542V11.562Z" fill="white"/>
</svg>
