<svg width="100" height="100" viewBox="0 0 100 100" fill="none" xmlns="http://www.w3.org/2000/svg">
<path d="M20.516 61L15.116 37.816H20.804L23.864 51.784L27.032 41.092V37.816H31.784L35.78 51.82L38.984 37.816H44.672L39.308 61H33.944L30.056 47.608L25.88 61H20.516ZM54.4058 61.36C51.4298 61.36 49.0418 60.628 47.2418 59.164C45.4418 57.676 44.5418 55.444 44.5418 52.468C44.5418 49.756 45.2858 47.596 46.7738 45.988C48.2618 44.38 50.4938 43.576 53.4698 43.576C56.1818 43.576 58.2818 44.272 59.7698 45.664C61.2578 47.056 62.0018 48.928 62.0018 51.28V54.34H49.9058C50.1698 55.468 50.7818 56.26 51.7418 56.716C52.7258 57.148 54.0578 57.364 55.7378 57.364C56.6738 57.364 57.6218 57.28 58.5818 57.112C59.5658 56.944 60.3818 56.728 61.0298 56.464V60.244C60.2138 60.628 59.2418 60.904 58.1138 61.072C56.9858 61.264 55.7498 61.36 54.4058 61.36ZM49.9058 50.992H56.9618V50.236C56.9618 49.396 56.7098 48.736 56.2058 48.256C55.7018 47.752 54.8498 47.5 53.6498 47.5C52.2578 47.5 51.2858 47.788 50.7338 48.364C50.1818 48.916 49.9058 49.792 49.9058 50.992ZM75.6413 61.36C74.4893 61.36 73.4813 61.216 72.6173 60.928C71.7533 60.616 70.9733 60.16 70.2773 59.56L69.9893 61H64.9493V36.736H70.7453V44.728C71.3933 44.344 72.1253 44.056 72.9413 43.864C73.7573 43.672 74.5973 43.576 75.4613 43.576C77.9573 43.576 79.9253 44.272 81.3653 45.664C82.8053 47.032 83.5253 49.252 83.5253 52.324C83.5253 55.396 82.8173 57.676 81.4013 59.164C79.9853 60.628 78.0653 61.36 75.6413 61.36ZM73.9853 57.148C75.2813 57.148 76.2053 56.764 76.7573 55.996C77.3333 55.204 77.6213 53.992 77.6213 52.36C77.6213 50.68 77.3213 49.504 76.7213 48.832C76.1453 48.16 75.2333 47.824 73.9853 47.824C72.6173 47.824 71.5373 48.184 70.7453 48.904V55.852C71.6093 56.716 72.6893 57.148 73.9853 57.148Z" fill="#3B82F6"/>
</svg>
