<svg width="240" height="60" viewBox="0 0 240 60" fill="none" xmlns="http://www.w3.org/2000/svg">
<path d="M17.167 38.37C17.167 36.57 16.551 35.272 15.319 34.507C14.106 33.742 12.333 33.359 9.99899 33.359V26.659C11.156 26.659 12.183 26.576 13.079 26.407C13.994 26.221 14.759 25.931 15.375 25.539C15.991 25.139 16.448 24.606 16.747 23.971C17.064 23.336 17.204 22.571 17.167 21.676V12.773C17.167 11.393 17.344 10.216 17.699 9.246C18.054 8.246 18.699 7.454 19.603 6.838C20.536 6.204 21.796 5.738 23.383 5.438C24.97 5.138 26.984 5 29.43 5V11.3C28.7447 11.3147 28.0615 11.3802 27.386 11.496C26.789 11.609 26.286 11.813 25.846 12.112C25.446 12.392 25.118 12.784 24.894 13.288C24.67 13.792 24.558 14.445 24.558 15.248V23.618C24.446 27.118 22.262 29.18 18.008 29.833V30.169C20.154 30.486 21.808 31.169 22.935 32.185C24.062 33.201 24.615 34.602 24.559 36.355V44.725C24.559 45.528 24.671 46.181 24.895 46.685C25.119 47.189 25.435 47.581 25.847 47.861C26.277 48.161 26.79 48.365 27.387 48.477C28.003 48.59 28.684 48.654 29.431 48.673V55C26.986 55 24.971 54.85 23.384 54.552C21.797 54.254 20.538 53.787 19.604 53.152C18.689 52.536 18.054 51.732 17.7 50.744C17.346 49.756 17.168 48.57 17.168 47.189V38.369M226.208 47.189C226.208 48.569 226.031 49.755 225.676 50.744C225.321 51.733 224.676 52.536 223.744 53.152C222.829 53.786 221.579 54.252 219.994 54.552C218.409 54.852 216.4 55 213.945 55V48.673C214.692 48.651 215.363 48.588 215.961 48.477C216.559 48.366 217.061 48.16 217.473 47.861C217.903 47.581 218.229 47.189 218.453 46.685C218.696 46.181 218.817 45.528 218.817 44.725V36.355C218.761 34.601 219.302 33.21 220.441 32.185C221.58 31.16 223.213 30.487 225.341 30.169V29.833C221.104 29.18 218.941 27.108 218.818 23.618V15.248C218.818 14.446 218.698 13.792 218.454 13.288C218.25 12.8081 217.909 12.3991 217.474 12.112C217.074 11.814 216.559 11.608 215.962 11.496C215.296 11.3774 214.622 11.3119 213.946 11.3V5C216.391 5 218.406 5.15 219.993 5.448C221.58 5.746 222.83 6.213 223.743 6.848C224.676 7.464 225.32 8.266 225.675 9.256C226.03 10.226 226.207 11.402 226.207 12.783V21.686C226.187 22.582 226.327 23.346 226.627 23.981C226.927 24.616 227.383 25.138 227.999 25.549C228.615 25.941 229.371 26.229 230.267 26.417C231.182 26.585 232.217 26.669 233.375 26.669V33.369C231.042 33.369 229.26 33.751 228.028 34.517C226.815 35.282 226.208 36.57 226.208 38.38V47.2" fill="#334155"/>
<path d="M41.405 48.923C40.769 48.923 40.205 48.88 39.739 48.791C39.265 48.716 38.853 48.611 38.504 48.473V45.48C38.953 45.5976 39.4093 45.6851 39.87 45.742C40.3904 45.8196 40.9159 45.8574 41.442 45.855C41.9099 45.8547 42.3757 45.7918 42.827 45.668C43.2953 45.5586 43.7313 45.3408 44.1 45.032C44.487 44.72 44.8 44.29 45.036 43.732C45.272 43.174 45.392 42.484 45.392 41.636V14.276H48.892V41.27C48.892 42.57 48.705 43.715 48.332 44.676C47.97 45.636 47.459 46.429 46.797 47.053C46.147 47.689 45.362 48.157 44.439 48.457C43.539 48.769 42.285 48.925 41.174 48.925M66.287 38.8H66.137C65.725 39.36 65.314 39.848 64.902 40.26C64.5011 40.6514 64.0478 40.9853 63.555 41.252C63.068 41.514 62.525 41.707 61.927 41.832C61.329 41.957 60.627 42.019 59.85 42.019C58.99 42.019 58.197 41.893 57.473 41.645C56.7697 41.4199 56.1245 41.043 55.583 40.541C55.059 40.041 54.647 39.393 54.348 38.641C54.048 37.868 53.898 36.957 53.898 35.909C53.898 33.863 54.615 32.291 56.05 31.193C57.497 30.095 59.693 29.496 62.637 29.396L66.08 29.264V27.964C66.08 27.128 65.986 26.429 65.8 25.868C65.625 25.308 65.363 24.868 65.014 24.521C64.677 24.171 64.254 23.921 63.741 23.771C63.241 23.621 62.668 23.547 62.019 23.547C61.0341 23.5387 60.0543 23.6903 59.118 23.996C58.232 24.296 57.378 24.656 56.554 25.081L55.356 22.517C56.279 22.017 57.308 21.594 58.444 21.244C59.6024 20.8913 60.8071 20.7147 62.018 20.72C63.291 20.72 64.388 20.852 65.312 21.113C66.248 21.363 67.015 21.768 67.614 22.329C68.214 22.879 68.681 23.583 68.98 24.444C69.279 25.305 69.43 26.347 69.43 27.569V41.642H66.972L66.287 38.8ZM60.729 39.258C61.489 39.258 62.195 39.138 62.844 38.902C63.493 38.666 64.044 38.309 64.528 37.835C65.002 37.348 65.37 36.743 65.632 36.02C65.906 35.284 66.044 34.423 66.044 33.437V31.584L63.368 31.716C62.245 31.766 61.303 31.891 60.542 32.09C59.781 32.289 59.17 32.57 58.708 32.932C58.2713 33.2648 57.9346 33.7115 57.735 34.223C57.535 34.723 57.435 35.29 57.435 35.926C57.435 37.074 57.735 37.926 58.333 38.452C58.933 38.989 59.733 39.257 60.728 39.257M72.288 21.097H75.806L79.53 32.53L80.017 34.13L80.577 36.114L81.082 38.014L81.4 39.38H81.53L81.848 38.014L82.353 36.114L82.913 34.13L83.4 32.53L87.124 21.096H90.642L83.624 41.644H79.3L72.288 21.097ZM104.56 38.8H104.41C103.998 39.36 103.587 39.848 103.175 40.26C102.774 40.6514 102.321 40.9853 101.828 41.252C101.341 41.514 100.798 41.707 100.2 41.832C99.602 41.957 98.9 42.019 98.123 42.019C97.263 42.019 96.47 41.893 95.746 41.645C95.0427 41.4199 94.3975 41.043 93.856 40.541C93.332 40.041 92.92 39.393 92.621 38.641C92.321 37.868 92.171 36.957 92.171 35.909C92.171 33.863 92.888 32.291 94.323 31.193C95.77 30.095 97.966 29.496 100.91 29.396L104.353 29.264V27.964C104.353 27.128 104.259 26.429 104.073 25.868C103.898 25.308 103.636 24.868 103.287 24.521C102.95 24.171 102.527 23.921 102.014 23.771C101.514 23.621 100.941 23.547 100.292 23.547C99.3071 23.5387 98.3273 23.6903 97.391 23.996C96.505 24.296 95.651 24.656 94.827 25.081L93.629 22.517C94.552 22.017 95.581 21.594 96.717 21.244C97.8754 20.8913 99.0801 20.7147 100.291 20.72C101.564 20.72 102.661 20.852 103.585 21.113C104.521 21.363 105.288 21.768 105.887 22.329C106.487 22.879 106.954 23.583 107.253 24.444C107.552 25.305 107.703 26.347 107.703 27.569V41.642H105.253L104.56 38.8ZM99.002 39.267C99.762 39.267 100.468 39.147 101.117 38.911C101.766 38.675 102.317 38.318 102.801 37.844C103.275 37.357 103.643 36.752 103.905 36.029C104.179 35.293 104.317 34.432 104.317 33.446V31.593L101.641 31.725C100.518 31.775 99.576 31.9 98.815 32.099C98.054 32.298 97.443 32.579 96.981 32.941C96.5443 33.2738 96.2076 33.7205 96.008 34.232C95.808 34.732 95.708 35.299 95.708 35.935C95.708 37.083 96.008 37.935 96.606 38.461C97.206 38.998 98.006 39.266 99.001 39.266M128.695 34.326C128.695 35.526 128.477 36.621 128.04 37.582C127.616 38.53 127.004 39.335 126.206 39.996C125.408 40.657 124.434 41.163 123.286 41.512C122.138 41.849 120.846 42.017 119.412 42.017C118.027 42.017 116.73 41.904 115.52 41.68C114.322 41.467 113.318 41.15 112.507 40.725V37.395L113.947 37.995L115.669 38.5L117.522 38.874C118.152 38.9612 118.786 39.0053 119.422 39.006C121.418 39.006 122.89 38.632 123.838 37.883C124.798 37.133 125.278 36.061 125.278 34.663C125.278 33.989 125.184 33.403 124.998 32.903C124.823 32.403 124.505 31.949 124.044 31.537C123.594 31.113 122.99 30.707 122.229 30.321C121.469 29.921 120.507 29.491 119.347 29.021C118.247 28.584 117.27 28.121 116.447 27.599C115.647 27.075 114.962 26.499 114.427 25.839C113.9 25.1829 113.499 24.434 113.247 23.631C112.997 22.808 112.873 21.871 112.873 20.824C112.873 19.726 113.073 18.747 113.473 17.886C113.873 17.025 114.433 16.301 115.157 15.716C115.881 15.116 116.741 14.662 117.739 14.35C118.737 14.038 119.859 13.882 121.069 13.882C122.554 13.882 123.889 14.025 125.074 14.312C126.259 14.586 127.314 14.942 128.237 15.379L126.983 18.299C126.183 17.937 125.249 17.625 124.213 17.363C123.176 17.0868 122.106 16.9483 121.033 16.951C119.511 16.951 118.333 17.307 117.496 18.018C116.66 18.718 116.242 19.665 116.242 20.862C116.242 21.562 116.336 22.192 116.522 22.715C116.709 23.227 117.022 23.695 117.458 24.119C117.895 24.531 118.458 24.924 119.18 25.299C120.047 25.7266 120.934 26.1137 121.837 26.459C122.972 26.909 123.964 27.359 124.812 27.844C125.672 28.318 126.39 28.844 126.964 29.444C127.535 30.0384 127.975 30.746 128.255 31.521C128.555 32.307 128.713 33.271 128.713 34.345M141.376 41.997C140.116 41.997 138.936 41.803 137.839 41.417C136.752 41.0248 135.772 40.3841 134.976 39.546C134.176 38.686 133.529 37.594 133.076 36.271C132.614 34.936 132.384 33.333 132.384 31.471C132.384 29.511 132.621 27.853 133.084 26.493C133.558 25.121 134.207 24.01 135.03 23.163C135.866 22.303 136.83 21.678 137.95 21.293C139.07 20.908 140.252 20.713 141.524 20.713C142.481 20.7114 143.435 20.8181 144.368 21.031C145.304 21.244 146.083 21.505 146.708 21.817L145.708 24.699C145.396 24.5643 145.078 24.4455 144.754 24.343C144.399 24.2149 144.037 24.1087 143.669 24.025C143.306 23.9273 142.937 23.8521 142.565 23.8C142.203 23.738 141.86 23.706 141.535 23.706C139.575 23.706 138.148 24.336 137.25 25.606C136.352 26.853 135.903 28.8 135.903 31.444C135.903 34.077 136.353 36.004 137.25 37.227C138.15 38.427 139.55 39.042 141.386 39.042C142.386 39.042 143.306 38.929 144.118 38.705C144.941 38.468 145.69 38.205 146.364 37.882V40.914C145.679 41.2801 144.949 41.5567 144.193 41.737C143.433 41.924 142.446 42.017 141.336 42.017M159.933 20.721L161.149 20.776C161.538 20.7939 161.926 20.838 162.309 20.908L161.859 24.052L160.774 23.902C160.412 23.852 160.069 23.827 159.744 23.827C158.958 23.827 158.241 23.989 157.592 24.314C156.942 24.626 156.392 25.081 155.908 25.68C155.446 26.266 155.085 26.978 154.823 27.813C154.573 28.636 154.449 29.553 154.449 30.563V41.641H151.043V21.098H153.813L154.225 24.858H154.375L155.367 23.305C155.71 22.8232 156.113 22.3864 156.565 22.005C157.011 21.6201 157.517 21.3104 158.062 21.088C158.612 20.851 159.292 20.732 159.992 20.732" fill="#334155"/>
<path d="M41.405 48.923C40.769 48.923 40.205 48.88 39.739 48.791C39.265 48.716 38.853 48.611 38.504 48.473V45.48C38.953 45.5976 39.4093 45.6851 39.87 45.742C40.3904 45.8196 40.9159 45.8574 41.442 45.855C41.9099 45.8547 42.3757 45.7918 42.827 45.668C43.2953 45.5586 43.7313 45.3408 44.1 45.032C44.487 44.72 44.8 44.29 45.036 43.732C45.272 43.174 45.392 42.484 45.392 41.636V14.276H48.892V41.27C48.892 42.57 48.705 43.715 48.332 44.676C47.97 45.636 47.459 46.429 46.797 47.053C46.147 47.689 45.362 48.157 44.439 48.457C43.539 48.769 42.285 48.925 41.174 48.925M60.729 39.258C61.489 39.258 62.195 39.138 62.844 38.902C63.493 38.666 64.044 38.309 64.528 37.835C65.002 37.348 65.37 36.743 65.632 36.02C65.906 35.284 66.044 34.423 66.044 33.437V31.584L63.368 31.716C62.245 31.766 61.303 31.891 60.542 32.09C59.781 32.289 59.17 32.57 58.708 32.932C58.2713 33.2648 57.9346 33.7115 57.735 34.223C57.535 34.723 57.435 35.29 57.435 35.926C57.435 37.074 57.735 37.926 58.333 38.452C58.933 38.989 59.733 39.257 60.728 39.257M99.002 39.267C99.762 39.267 100.468 39.147 101.117 38.911C101.766 38.675 102.317 38.318 102.801 37.844C103.275 37.357 103.643 36.752 103.905 36.029C104.179 35.293 104.317 34.432 104.317 33.446V31.593L101.641 31.725C100.518 31.775 99.576 31.9 98.815 32.099C98.054 32.298 97.443 32.579 96.981 32.941C96.5443 33.2738 96.2076 33.7205 96.008 34.232C95.808 34.732 95.708 35.299 95.708 35.935C95.708 37.083 96.008 37.935 96.606 38.461C97.206 38.998 98.006 39.266 99.001 39.266M128.695 34.326C128.695 35.526 128.477 36.621 128.04 37.582C127.616 38.53 127.004 39.335 126.206 39.996C125.408 40.657 124.434 41.163 123.286 41.512C122.138 41.849 120.846 42.017 119.412 42.017C118.027 42.017 116.73 41.904 115.52 41.68C114.322 41.467 113.318 41.15 112.507 40.725V37.395L113.947 37.995L115.669 38.5L117.522 38.874C118.152 38.9612 118.786 39.0053 119.422 39.006C121.418 39.006 122.89 38.632 123.838 37.883C124.798 37.133 125.278 36.061 125.278 34.663C125.278 33.989 125.184 33.403 124.998 32.903C124.823 32.403 124.505 31.949 124.044 31.537C123.594 31.113 122.99 30.707 122.229 30.321C121.469 29.921 120.507 29.491 119.347 29.021C118.247 28.584 117.27 28.121 116.447 27.599C115.647 27.075 114.962 26.499 114.427 25.839C113.9 25.1829 113.499 24.434 113.247 23.631C112.997 22.808 112.873 21.871 112.873 20.824C112.873 19.726 113.073 18.747 113.473 17.886C113.873 17.025 114.433 16.301 115.157 15.716C115.881 15.116 116.741 14.662 117.739 14.35C118.737 14.038 119.859 13.882 121.069 13.882C122.554 13.882 123.889 14.025 125.074 14.312C126.259 14.586 127.314 14.942 128.237 15.379L126.983 18.299C126.183 17.937 125.249 17.625 124.213 17.363C123.176 17.0868 122.106 16.9483 121.033 16.951C119.511 16.951 118.333 17.307 117.496 18.018C116.66 18.718 116.242 19.665 116.242 20.862C116.242 21.562 116.336 22.192 116.522 22.715C116.709 23.227 117.022 23.695 117.458 24.119C117.895 24.531 118.458 24.924 119.18 25.299C120.047 25.7266 120.934 26.1137 121.837 26.459C122.972 26.909 123.964 27.359 124.812 27.844C125.672 28.318 126.39 28.844 126.964 29.444C127.535 30.0384 127.975 30.746 128.255 31.521C128.555 32.307 128.713 33.271 128.713 34.345M141.376 41.997C140.116 41.997 138.936 41.803 137.839 41.417C136.752 41.0248 135.772 40.3841 134.976 39.546C134.176 38.686 133.529 37.594 133.076 36.271C132.614 34.936 132.384 33.333 132.384 31.471C132.384 29.511 132.621 27.853 133.084 26.493C133.558 25.121 134.207 24.01 135.03 23.163C135.866 22.303 136.83 21.678 137.95 21.293C139.07 20.908 140.252 20.713 141.524 20.713C142.481 20.7114 143.435 20.8181 144.368 21.031C145.304 21.244 146.083 21.505 146.708 21.817L145.708 24.699C145.396 24.5643 145.078 24.4455 144.754 24.343C144.399 24.2149 144.037 24.1087 143.669 24.025C143.306 23.9273 142.937 23.8521 142.565 23.8C142.203 23.738 141.86 23.706 141.535 23.706C139.575 23.706 138.148 24.336 137.25 25.606C136.352 26.853 135.903 28.8 135.903 31.444C135.903 34.077 136.353 36.004 137.25 37.227C138.15 38.427 139.55 39.042 141.386 39.042C142.386 39.042 143.306 38.929 144.118 38.705C144.941 38.468 145.69 38.205 146.364 37.882V40.914C145.679 41.2801 144.949 41.5567 144.193 41.737C143.433 41.924 142.446 42.017 141.336 42.017M159.933 20.721L161.149 20.776C161.538 20.7939 161.926 20.838 162.309 20.908L161.859 24.052L160.774 23.902C160.412 23.852 160.069 23.827 159.744 23.827C158.958 23.827 158.241 23.989 157.592 24.314C156.942 24.626 156.392 25.081 155.908 25.68C155.446 26.266 155.085 26.978 154.823 27.813C154.573 28.636 154.449 29.553 154.449 30.563V41.641H151.043V21.098H153.813L154.225 24.858H154.375L155.367 23.305C155.71 22.8232 156.113 22.3864 156.565 22.005C157.011 21.6201 157.517 21.3104 158.062 21.088C158.612 20.851 159.292 20.732 159.992 20.732M66.287 38.8H66.137C65.725 39.36 65.314 39.848 64.902 40.26C64.5011 40.6514 64.0478 40.9853 63.555 41.252C63.068 41.514 62.525 41.707 61.927 41.832C61.329 41.957 60.627 42.019 59.85 42.019C58.99 42.019 58.197 41.893 57.473 41.645C56.7697 41.4199 56.1245 41.043 55.583 40.541C55.059 40.041 54.647 39.393 54.348 38.641C54.048 37.868 53.898 36.957 53.898 35.909C53.898 33.863 54.615 32.291 56.05 31.193C57.497 30.095 59.693 29.496 62.637 29.396L66.08 29.264V27.964C66.08 27.128 65.986 26.429 65.8 25.868C65.625 25.308 65.363 24.868 65.014 24.521C64.677 24.171 64.254 23.921 63.741 23.771C63.241 23.621 62.668 23.547 62.019 23.547C61.0341 23.5387 60.0543 23.6903 59.118 23.996C58.232 24.296 57.378 24.656 56.554 25.081L55.356 22.517C56.279 22.017 57.308 21.594 58.444 21.244C59.6024 20.8913 60.8071 20.7147 62.018 20.72C63.291 20.72 64.388 20.852 65.312 21.113C66.248 21.363 67.015 21.768 67.614 22.329C68.214 22.879 68.681 23.583 68.98 24.444C69.279 25.305 69.43 26.347 69.43 27.569V41.642H66.972L66.287 38.8ZM72.288 21.097H75.806L79.53 32.53L80.017 34.13L80.577 36.114L81.082 38.014L81.4 39.38H81.53L81.848 38.014L82.353 36.114L82.913 34.13L83.4 32.53L87.124 21.096H90.642L83.624 41.644H79.3L72.288 21.097ZM104.56 38.8H104.41C103.998 39.36 103.587 39.848 103.175 40.26C102.774 40.6514 102.321 40.9853 101.828 41.252C101.341 41.514 100.798 41.707 100.2 41.832C99.602 41.957 98.9 42.019 98.123 42.019C97.263 42.019 96.47 41.893 95.746 41.645C95.0427 41.4199 94.3975 41.043 93.856 40.541C93.332 40.041 92.92 39.393 92.621 38.641C92.321 37.868 92.171 36.957 92.171 35.909C92.171 33.863 92.888 32.291 94.323 31.193C95.77 30.095 97.966 29.496 100.91 29.396L104.353 29.264V27.964C104.353 27.128 104.259 26.429 104.073 25.868C103.898 25.308 103.636 24.868 103.287 24.521C102.95 24.171 102.527 23.921 102.014 23.771C101.514 23.621 100.941 23.547 100.292 23.547C99.3071 23.5387 98.3273 23.6903 97.391 23.996C96.505 24.296 95.651 24.656 94.827 25.081L93.629 22.517C94.552 22.017 95.581 21.594 96.717 21.244C97.8754 20.8913 99.0801 20.7147 100.291 20.72C101.564 20.72 102.661 20.852 103.585 21.113C104.521 21.363 105.288 21.768 105.887 22.329C106.487 22.879 106.954 23.583 107.253 24.444C107.552 25.305 107.703 26.347 107.703 27.569V41.642H105.253L104.56 38.8Z" stroke="#334155" stroke-width="2.129"/>
<path d="M169.507 41.644H166.1V21.096H169.506V41.644M166.4 13.9C166.787 13.563 167.26 13.395 167.822 13.395C168.096 13.395 168.352 13.438 168.589 13.527C168.829 13.5964 169.048 13.725 169.225 13.901C169.412 14.076 169.555 14.301 169.655 14.575C169.767 14.837 169.823 15.155 169.823 15.529C169.823 16.253 169.623 16.795 169.223 17.157C168.836 17.507 168.368 17.681 167.819 17.681C167.259 17.681 166.769 17.418 166.382 17.069C166.008 16.719 165.832 16.177 165.832 15.484C165.834 14.779 166.022 14.237 166.396 13.9H166.4Z" fill="#334155"/>
<path d="M169.507 41.644H166.1V21.096H169.506V41.644M166.4 13.9C166.787 13.563 167.26 13.395 167.822 13.395C168.096 13.395 168.352 13.438 168.589 13.527C168.829 13.5964 169.048 13.725 169.225 13.901C169.412 14.076 169.555 14.301 169.655 14.575C169.767 14.837 169.823 15.155 169.823 15.529C169.823 16.253 169.623 16.795 169.223 17.157C168.836 17.507 168.368 17.681 167.819 17.681C167.259 17.681 166.769 17.418 166.382 17.069C166.008 16.719 165.832 16.177 165.832 15.484C165.834 14.779 166.022 14.237 166.396 13.9H166.4Z" stroke="#334155" stroke-width="2.129" stroke-linecap="square"/>
<path d="M185.126 42.018C184.39 42.018 183.722 41.938 183.124 41.775C182.526 41.612 181.982 41.401 181.496 41.139C181.022 40.865 180.598 40.546 180.223 40.184C179.868 39.8306 179.543 39.4491 179.25 39.043H179.025L179.137 40.259L179.212 41.259L179.249 42.064V50.841H175.843V21.096H178.613L179.1 23.866H179.25C179.536 23.4311 179.861 23.024 180.223 22.65C180.59 22.2593 181.012 21.925 181.477 21.658C181.964 21.371 182.507 21.146 183.105 20.984C183.705 20.809 184.378 20.722 185.125 20.722C186.298 20.722 187.365 20.947 188.325 21.396C189.297 21.8551 190.14 22.5498 190.776 23.417C191.462 24.303 191.992 25.417 192.376 26.729C192.76 28.041 192.936 29.586 192.936 31.333C192.936 33.093 192.749 34.639 192.376 35.973C192.002 37.295 191.471 38.406 190.776 39.303C190.102 40.201 189.276 40.881 188.326 41.343C187.366 41.793 186.062 42.017 184.89 42.017M184.47 23.547C183.522 23.547 182.717 23.69 182.056 23.977C181.415 24.2579 180.864 24.7114 180.465 25.287C180.065 25.873 179.765 26.603 179.567 27.487C179.38 28.36 179.274 29.389 179.249 30.575V31.342C179.249 32.602 179.329 33.725 179.492 34.71C179.667 35.683 179.954 36.507 180.352 37.18C180.746 37.8247 181.309 38.3491 181.98 38.696C182.654 39.033 183.496 39.201 184.506 39.201C186.19 39.201 187.426 38.521 188.211 37.161C189.009 35.801 189.409 33.849 189.409 31.304C189.409 28.709 189.009 26.769 188.211 25.484C187.425 24.199 186.177 23.557 184.468 23.557M204.3 39.23C204.525 39.23 204.774 39.21 205.05 39.192L205.873 39.098L206.573 38.966L207.078 38.834V41.417C206.916 41.492 206.71 41.567 206.46 41.642C206.21 41.717 205.936 41.778 205.637 41.829C205.328 41.8924 205.015 41.9365 204.701 41.961C204.384 41.998 204.066 42.0164 203.747 42.016C203.019 42.0221 202.294 41.921 201.595 41.716C200.944 41.5224 200.352 41.1686 199.873 40.687C199.399 40.2 199.025 39.547 198.75 38.722C198.476 37.886 198.338 36.838 198.338 35.578V23.658H195.438V22.142L198.338 20.682L199.798 16.378H201.763V21.094H206.928V23.658H201.763V35.578C201.763 36.778 201.956 37.698 202.343 38.31C202.743 38.91 203.391 39.227 204.289 39.227" fill="#334155"/>
<path d="M185.126 42.018C184.39 42.018 183.722 41.938 183.124 41.775C182.526 41.612 181.982 41.401 181.496 41.139C181.022 40.865 180.598 40.546 180.223 40.184C179.868 39.8306 179.543 39.4491 179.25 39.043H179.025L179.137 40.259L179.212 41.259L179.249 42.064V50.841H175.843V21.096H178.613L179.1 23.866H179.25C179.536 23.4311 179.861 23.024 180.223 22.65C180.59 22.2593 181.012 21.925 181.477 21.658C181.964 21.371 182.507 21.146 183.105 20.984C183.705 20.809 184.378 20.722 185.125 20.722C186.298 20.722 187.365 20.947 188.325 21.396C189.297 21.8551 190.14 22.5498 190.776 23.417C191.462 24.303 191.992 25.417 192.376 26.729C192.76 28.041 192.936 29.586 192.936 31.333C192.936 33.093 192.749 34.639 192.376 35.973C192.002 37.295 191.471 38.406 190.776 39.303C190.102 40.201 189.276 40.881 188.326 41.343C187.366 41.793 186.062 42.017 184.89 42.017M184.47 23.547C183.522 23.547 182.717 23.69 182.056 23.977C181.415 24.2579 180.864 24.7114 180.465 25.287C180.065 25.873 179.765 26.603 179.567 27.487C179.38 28.36 179.274 29.389 179.249 30.575V31.342C179.249 32.602 179.329 33.725 179.492 34.71C179.667 35.683 179.954 36.507 180.352 37.18C180.746 37.8247 181.309 38.3491 181.98 38.696C182.654 39.033 183.496 39.201 184.506 39.201C186.19 39.201 187.426 38.521 188.211 37.161C189.009 35.801 189.409 33.849 189.409 31.304C189.409 28.709 189.009 26.769 188.211 25.484C187.425 24.199 186.177 23.557 184.468 23.557M204.3 39.23C204.525 39.23 204.774 39.21 205.05 39.192L205.873 39.098L206.573 38.966L207.078 38.834V41.417C206.916 41.492 206.71 41.567 206.46 41.642C206.21 41.717 205.936 41.778 205.637 41.829C205.328 41.8924 205.015 41.9365 204.701 41.961C204.384 41.998 204.066 42.0164 203.747 42.016C203.019 42.0221 202.294 41.921 201.595 41.716C200.944 41.5224 200.352 41.1686 199.873 40.687C199.399 40.2 199.025 39.547 198.75 38.722C198.476 37.886 198.338 36.838 198.338 35.578V23.658H195.438V22.142L198.338 20.682L199.798 16.378H201.763V21.094H206.928V23.658H201.763V35.578C201.763 36.778 201.956 37.698 202.343 38.31C202.743 38.91 203.391 39.227 204.289 39.227" stroke="#334155" stroke-width="2.129"/>
</svg>
