<svg width="75" height="29" viewBox="0 0 75 29" fill="none" xmlns="http://www.w3.org/2000/svg">
<path d="M9 26.2556H10.8389V18.9963L13.6858 25.327C14.0216 26.0901 14.4817 26.3643 15.3833 26.3643C16.2849 26.3643 16.727 26.0931 17.0633 25.327L19.9104 18.9963V26.2583H21.7496V19.0083C21.7496 18.301 21.4662 17.959 20.8829 17.7823C19.4861 17.3462 18.5487 17.7235 18.1246 18.6665L15.3309 24.9143L12.625 18.6638C12.2183 17.7207 11.2636 17.3435 9.86673 17.7796C9.28291 17.9565 9 18.2986 9 19.0056V26.2556ZM23.2781 20.3449H25.1165V24.346C25.0994 24.5635 25.1863 25.0738 26.1937 25.0893C26.7077 25.0975 30.1605 25.0893 30.1926 25.0893V20.325H32.0351C32.0433 20.325 32.0332 26.8211 32.0335 26.8489C32.0436 28.451 30.0454 28.7991 29.1247 28.826H23.3182V27.5886L29.1351 27.5884C30.3185 27.463 30.179 26.8751 30.179 26.6769V26.1945H26.2705C24.452 26.1782 23.2942 25.3842 23.2798 24.4711C23.2784 24.3894 23.319 20.3842 23.2787 20.3446L23.2781 20.3449Z" fill="#334155"/>
<path d="M33.4526 26.2556H38.7397C39.3584 26.2556 39.9599 26.1261 40.4377 25.9018C41.2336 25.5366 41.6225 25.0414 41.6225 24.393V23.0492C41.6225 22.5186 41.1804 22.0236 40.3142 21.6936C39.8544 21.5164 39.2886 21.4224 38.7405 21.4224H36.5123C35.7699 21.4224 35.4161 21.1983 35.3278 20.7034C35.3101 20.6445 35.3101 20.5943 35.3101 20.5382V19.7014C35.3101 19.6543 35.3101 19.6069 35.3278 19.548C35.4161 19.1708 35.6107 19.0645 36.2649 19.0029C36.318 19.0029 36.3886 18.9909 36.442 18.9909H41.6936V17.7652H36.5303C35.7876 17.7652 35.3987 17.8124 35.0449 17.9184C33.9476 18.2604 33.4701 18.8055 33.4701 19.7486V20.8214C33.4701 21.6467 34.4077 22.354 35.9809 22.5189C36.158 22.5306 36.3346 22.5423 36.5112 22.5423H38.4211C38.4919 22.5423 38.5628 22.5423 38.6157 22.5543C39.1989 22.6014 39.447 22.7075 39.6236 22.9195C39.7326 23.0285 39.7653 23.1321 39.7653 23.2466V24.3194C39.7653 24.4491 39.677 24.6143 39.5001 24.7555C39.3409 24.8972 39.0757 24.9912 38.722 25.0149C38.6511 25.0149 38.5982 25.0266 38.5276 25.0266H33.4526V26.2526V26.2556ZM53.0941 24.122C53.0941 25.3834 54.0312 26.0907 55.9233 26.2322C56.0998 26.2458 56.2766 26.2536 56.4537 26.2556H61.2457V25.0296H56.4182C55.3397 25.0296 54.9328 24.7584 54.9328 24.11V17.7677H53.0939V24.1215L53.0941 24.122ZM42.7956 24.1858V19.8154C42.7956 18.705 43.5751 18.0315 45.1167 17.8189C45.2811 17.7954 45.4469 17.7836 45.613 17.7835H49.1036C49.2756 17.7836 49.4473 17.7954 49.6177 17.8189C51.1592 18.0315 51.9388 18.7047 51.9388 19.8154V24.1858C51.9388 25.0866 51.6076 25.5688 50.8444 25.883L52.6559 27.5184H50.5206L49.0551 26.1954L47.5798 26.2889H45.613C45.2764 26.2889 44.9221 26.2414 44.532 26.1351C43.36 25.8162 42.7956 25.2019 42.7956 24.1858ZM44.7806 24.0768C44.7806 24.1359 44.7983 24.1948 44.816 24.2659C44.9251 24.774 45.4007 25.0574 46.1243 25.0574H47.7951L46.2606 23.672H48.3958L49.7313 24.8803C49.978 24.7489 50.1402 24.5478 50.1947 24.2897C50.2124 24.2308 50.2124 24.1716 50.2124 24.1125V19.9219C50.2124 19.8748 50.2124 19.8129 50.1947 19.7565C50.0856 19.2842 49.6098 19.0124 48.9011 19.0124H46.1276C45.3099 19.0124 44.7812 19.3667 44.7812 19.9219V24.0801L44.7806 24.0768Z" fill="#334155"/>
<path d="M62.8637 15.7338C61.7334 15.7033 60.8697 15.8082 60.1316 16.1195C59.9217 16.2081 59.5873 16.2103 59.5529 16.4733C59.6682 16.594 59.6865 16.7744 59.7778 16.923C59.9541 17.2084 60.252 17.5908 60.5172 17.7908C60.8072 18.0097 61.106 18.2441 61.4175 18.434C61.9708 18.7715 62.5884 18.9642 63.121 19.3019C63.435 19.5008 63.7468 19.7516 64.0531 19.9767C64.2044 20.0879 64.3066 20.2607 64.5028 20.3302V20.2981C64.3993 20.1664 64.3728 19.9854 64.278 19.8483L63.8601 19.4305C63.4513 18.8854 62.9329 18.412 62.3815 18.0159C61.9419 17.7003 60.9577 17.274 60.7743 16.7622L60.7421 16.73C61.0539 16.6946 61.4189 16.582 61.707 16.5052C62.1902 16.3757 62.6222 16.409 63.1215 16.2803L63.7966 16.0873V15.9587C63.5443 15.6998 63.3644 15.3572 63.0894 15.123C62.3698 14.5098 61.584 13.8979 60.7754 13.3868C60.3267 13.1034 59.7723 12.9197 59.2967 12.6796C59.1367 12.5989 58.8557 12.5569 58.7503 12.4223C58.5006 12.1039 58.3646 11.7 58.1719 11.332C57.7685 10.5553 57.3722 9.70652 57.0146 8.88912C56.7707 8.33174 56.6112 7.782 56.3076 7.28186C54.8481 4.88227 53.2768 3.4339 50.8434 2.01061C50.3255 1.70808 49.7022 1.58815 49.0432 1.43198L47.9824 1.36765C47.7665 1.27771 47.5419 1.01333 47.3391 0.885229C46.5329 0.375549 44.465 -0.731848 43.8679 0.721695C43.4909 1.64103 44.4312 2.53801 44.7678 3.00408C45.0039 3.33115 45.3064 3.69719 45.4749 4.06487C45.5858 4.30636 45.6051 4.54866 45.7 4.80432C45.9336 5.4312 46.1369 6.11886 46.4392 6.70076C46.5918 6.99513 46.7602 7.30529 46.9535 7.56858C47.072 7.73021 47.2751 7.80135 47.307 8.05101C47.1086 8.32902 47.0971 8.75966 46.9854 9.1118C46.483 10.6959 46.6725 12.6646 47.4032 13.8371C47.6275 14.1969 48.1554 14.9688 48.8818 14.6728C49.5169 14.4138 49.3724 13.6125 49.5569 12.905C49.5978 12.7442 49.5727 12.627 49.6534 12.5193V12.5515L50.2321 13.7085C50.66 14.398 51.4204 15.1189 52.0642 15.6055C52.3981 15.8576 52.6638 16.2937 53.0928 16.4411V16.409H53.0606C52.977 16.2781 52.8461 16.2244 52.739 16.12C52.4875 15.8734 52.2075 15.5668 51.9996 15.2844C51.4136 14.4891 50.8963 13.6191 50.4248 12.7128C50.1996 12.2803 50.0037 11.803 49.8142 11.3628C49.7412 11.193 49.742 10.9366 49.5894 10.8485C49.3814 11.1712 49.0751 11.4318 48.9142 11.8128C48.657 12.4217 48.6237 13.1642 48.5286 13.9344C48.4722 13.9546 48.4972 13.9407 48.4643 13.9666C48.0167 13.8586 47.8592 13.3977 47.6929 13.0023C47.2721 12.002 47.1941 10.3923 47.5643 9.24154C47.6597 8.9439 48.093 8.00577 47.9178 7.73076C47.8341 7.45629 47.558 7.29467 47.4035 7.08752C47.2127 6.82859 47.0213 6.48681 46.8892 6.18754C46.5446 5.40803 46.3838 4.53312 46.0213 3.74462C45.848 3.36795 45.5553 2.98691 45.3143 2.65439C45.0478 2.28372 44.7493 2.01007 44.543 1.56417C44.4694 1.40472 44.3696 1.14988 44.4787 0.98553C44.4891 0.938309 44.5128 0.895051 44.547 0.860859C44.5812 0.826667 44.6244 0.802969 44.6716 0.79256C44.8581 0.648923 45.3776 0.840257 45.5716 0.921207C46.0867 1.13544 46.5174 1.33931 46.954 1.62849C47.1639 1.76477 47.3757 2.03623 47.6289 2.11092H47.9178C48.3702 2.21503 48.8772 2.14362 49.2996 2.27172C50.047 2.49876 50.7164 2.85227 51.3247 3.23603C53.1776 4.40584 54.6922 6.07116 55.7284 8.06028C55.8952 8.37999 55.9672 8.68552 56.1141 9.02458C56.4104 9.70597 56.7835 10.4127 57.0784 11.0816C57.3728 11.7493 57.6589 12.4225 58.0749 12.978C58.2935 13.2696 59.1378 13.4266 59.5213 13.5885C59.7903 13.7022 60.2308 13.8208 60.4856 13.9742C60.9721 14.2677 61.4437 14.6174 61.9002 14.9391C62.1283 15.0999 62.8296 15.4523 62.8645 15.7426L62.8637 15.7338Z" fill="#334155"/>
<path fill-rule="evenodd" clip-rule="evenodd" d="M48.4961 3.4873C48.2603 3.48294 48.0938 3.51292 47.9174 3.55162V3.58379H47.9496C48.0619 3.81491 48.2603 3.96346 48.3993 4.16242L48.7209 4.83727L48.7531 4.80511C48.9521 4.66474 49.0434 4.44043 49.042 4.09783C48.9622 4.01388 48.9504 3.90867 48.8812 3.80837C48.7894 3.67482 48.6087 3.59905 48.4955 3.48676L48.4961 3.4873Z" fill="#334155"/>
<path fill-rule="evenodd" clip-rule="evenodd" d="M62.1089 24.9948C62.1089 25.8043 62.7486 26.3499 63.4641 26.3499C64.1796 26.3499 64.8192 25.8043 64.8192 24.9948C64.8192 24.1853 64.1796 23.6396 63.4641 23.6396C62.7486 23.6396 62.1089 24.1853 62.1089 24.9948ZM64.5156 24.9948C64.5156 25.6091 64.046 26.0681 63.4636 26.0681C62.8748 26.0681 62.4115 25.6091 62.4115 24.9948C62.4115 24.3804 62.8743 23.9214 63.4636 23.9214C64.0455 23.9214 64.5156 24.3804 64.5156 24.9948ZM63.8288 25.7683H64.1321L63.6879 25.0891C63.9264 25.0637 64.1068 24.9479 64.1068 24.6661C64.1068 24.3515 63.9078 24.2218 63.5252 24.2218H62.9214V25.7686H63.1817V25.1H63.4238L63.8285 25.7686L63.8288 25.7683ZM63.1817 24.8825V24.4382H63.4815C63.6369 24.4382 63.825 24.4671 63.825 24.6481C63.825 24.8648 63.6552 24.883 63.4597 24.883H63.1817V24.8825Z" fill="#334155"/>
</svg>
