<svg width="114" height="29" viewBox="0 0 114 29" fill="none" xmlns="http://www.w3.org/2000/svg">
<path d="M43.2875 14.8574C43.2875 11.4174 42.3068 9.65232 40.3452 9.55532C39.5647 9.51867 38.8028 9.63991 38.0613 9.93033C37.4697 10.1418 37.0744 10.3516 36.8618 10.5633V18.7733C38.1165 19.5605 39.2309 19.9293 40.2025 19.8692C42.2608 19.7333 43.2872 18.0647 43.2872 14.8571L43.2875 14.8574ZM45.7073 15C45.7073 16.7474 45.2976 18.1975 44.4731 19.3513C43.5545 20.6568 42.2814 21.329 40.6536 21.3659C39.4265 21.4054 38.1625 21.0205 36.8618 20.2147V27.6762L34.7575 26.9257V10.3637C35.1029 9.9402 35.547 9.57647 36.0827 9.26772C37.3352 8.538 38.8573 8.16242 40.6505 8.1441L40.6804 8.17398C42.3172 8.1534 43.579 8.8225 44.4652 10.1883C45.2914 11.4386 45.7059 13.0409 45.7059 15H45.7073ZM58.5648 19.8969C58.5648 22.2406 58.3299 23.8641 57.8599 24.7664C57.3879 25.6687 56.4901 26.3894 55.1643 26.9262C54.0892 27.3497 52.9264 27.5804 51.6787 27.6193L51.331 26.2932C52.5998 26.1206 53.4928 25.9478 54.0108 25.7752C55.0306 25.4298 55.7308 24.9003 56.1151 24.1912C56.4235 23.6132 56.5755 22.5107 56.5755 20.8781V20.3303C55.1558 20.9792 53.6124 21.313 52.0514 21.3087C51.0155 21.3087 50.1014 20.9844 49.3141 20.3303C48.4302 19.6189 47.9881 18.7163 47.9881 17.6228V8.86508L50.0924 8.14438V16.9597C50.0924 17.9014 50.3963 18.6266 51.0039 19.1353C51.6116 19.644 52.3991 19.8881 53.364 19.8698C54.3283 19.8492 55.3622 19.4762 56.4605 18.7462V8.46187H58.5648V19.8969ZM66.782 21.2509L66.089 21.2808C64.8991 21.2808 63.9709 20.9977 63.308 20.4292C62.6473 19.8605 62.3154 19.0758 62.3154 18.074V9.78286H60.8774V8.45905H62.3154V4.94607L64.4175 4.19774V8.46159H66.782V9.7854H64.4175V18.0187C64.4175 18.8082 64.629 19.3679 65.053 19.6947C65.4196 19.964 65.9948 20.1182 66.782 20.1571V21.2531V21.2509ZM79.5231 21.0783H77.4188V12.9558C77.4188 12.1296 77.2254 11.418 76.8408 10.8242C76.3964 10.152 75.7795 9.81585 74.9874 9.81585C74.0231 9.81585 72.8163 10.3245 71.3682 11.3421V21.0783H69.2639V1.66318L71.3682 1V9.84292C72.7126 8.86451 74.1816 8.37672 75.7769 8.37672C76.8912 8.37672 77.7938 8.75173 78.4843 9.50034C79.1774 10.2487 79.5225 11.1808 79.5225 12.2952V21.0811L79.5231 21.0783ZM90.7074 14.526C90.7074 13.2045 90.4537 12.1133 89.9568 11.2496C89.3627 10.1979 88.4399 9.64245 87.1919 9.58521C84.8855 9.71886 83.7339 11.3717 83.7339 14.5393C83.7339 15.992 83.9736 17.2053 84.4569 18.1766C85.0738 19.4173 85.9992 20.03 87.2334 20.0094C89.5494 19.9911 90.7072 18.1631 90.7072 14.5229L90.7074 14.526ZM93.0119 14.5401C93.0119 16.4208 92.5306 17.9866 91.5739 19.2368C90.5171 20.6365 89.0574 21.3388 87.195 21.3388C85.3487 21.3388 83.9096 20.6339 82.8714 19.2368C81.9296 17.9866 81.4602 16.4211 81.4602 14.5401C81.4602 12.7722 81.9691 11.2846 82.9864 10.0739C84.0616 8.78923 85.4753 8.14466 87.2227 8.14466C88.97 8.14466 90.3928 8.78923 91.4887 10.0739C92.5038 11.2849 93.015 12.7722 93.015 14.5401H93.0119ZM105.076 21.0783H102.971V12.4953C102.971 11.5536 102.688 10.8194 102.122 10.2898C101.558 9.76256 100.8 9.50711 99.8588 9.52769C98.8595 9.54602 97.9088 9.87309 97.0062 10.5061V21.0783H94.9019V10.2461C96.1129 9.36443 97.2273 8.78838 98.2449 8.51939C99.205 8.26562 100.049 8.14438 100.782 8.14438C101.282 8.14438 101.751 8.19231 102.193 8.28931C103.019 8.48048 103.692 8.83491 104.21 9.35513C104.788 9.93033 105.076 10.624 105.076 11.4295V21.0783Z" fill="#334155"/>
<path d="M13.9743 1.74129C12.8916 1.74636 11.8576 1.83856 10.948 1.99956C8.26793 2.47326 7.78155 3.46408 7.78155 5.29148V7.70509H14.1144V8.50953H5.40178C3.56112 8.50953 1.94942 9.61595 1.44584 11.7202C0.864429 14.1324 0.838488 15.6378 1.44584 18.1566C1.89613 20.0317 2.97126 21.3673 4.81163 21.3673H6.98923V18.4741C6.98923 16.3836 8.79774 14.5399 10.9452 14.5399H17.271C19.0319 14.5399 20.4375 13.09 20.4375 11.3215V5.2912C20.4375 3.57489 18.9896 2.28547 17.271 1.99928C16.1832 1.81826 15.0542 1.73593 13.9715 1.741L13.9743 1.74129ZM10.5465 3.68204C11.2006 3.68204 11.7349 4.2251 11.7349 4.89251C11.7349 5.55794 11.2006 6.09564 10.5465 6.09564C9.89006 6.09564 9.358 5.55766 9.358 4.89251C9.358 4.22482 9.88978 3.68204 10.5465 3.68204Z" fill="#334155"/>
<path d="M21.2329 8.50952V11.3218C21.2329 13.5022 19.3843 15.337 17.2769 15.337H10.9511C9.21843 15.337 7.78465 16.8201 7.78465 18.5553V24.5859C7.78465 26.3022 9.27708 27.3117 10.9511 27.8042C12.953 28.3936 14.8783 28.5001 17.2769 27.8042C18.8714 27.3427 20.4434 26.4136 20.4434 24.5859V22.1723H14.1175V21.3679H23.6098C25.4505 21.3679 26.1362 20.0841 26.7763 18.1572C27.4375 16.1733 27.4093 14.2655 26.7763 11.7208C26.3215 9.8886 25.4527 8.51009 23.6098 8.51009H21.2329V8.50952ZM17.6751 23.7815C18.3315 23.7815 18.8635 24.3195 18.8635 24.9846C18.8635 25.6523 18.3318 26.1951 17.6751 26.1951C17.0209 26.1951 16.4866 25.652 16.4866 24.9846C16.4866 24.3192 17.0209 23.7815 17.6751 23.7815Z" fill="#334155"/>
<path d="M109.173 6.5854H109.542V4.27189H110.416V3.99613H108.299V4.27189H109.173V6.5854ZM110.743 6.5854H111.059V4.47237L111.743 6.5854H112.094L112.807 4.47913V6.5854H113.151V3.99585H112.696L111.917 6.21433L111.253 3.99585H110.744V6.5854" fill="#334155"/>
</svg>
