<svg width="104" height="23" viewBox="0 0 104 23" fill="none" xmlns="http://www.w3.org/2000/svg">
<path fill-rule="evenodd" clip-rule="evenodd" d="M9.736 7.99C10.9 3.33 13.813 1 18.472 1C25.462 1 26.334 6.24 29.828 7.115C32.158 7.698 34.196 6.825 35.943 4.495C34.779 9.154 31.866 11.484 27.208 11.484C20.218 11.484 19.346 6.244 15.852 5.369C13.522 4.786 11.484 5.659 9.737 7.989L9.736 7.99ZM1 18.474C2.166 13.814 5.076 11.484 9.736 11.484C16.726 11.484 17.598 16.724 21.092 17.599C23.422 18.182 25.46 17.309 27.207 14.979C26.043 19.639 23.13 21.969 18.471 21.969C11.481 21.969 10.609 16.729 7.115 15.854C4.785 15.271 2.747 16.144 1 18.474Z" fill="#334155"/>
<path fill-rule="evenodd" clip-rule="evenodd" d="M42.303 9.06199H40.016V7.692H46.186V9.06199H43.9V15.276H42.303V9.06199ZM49.173 14.575C48.9614 14.8161 48.7113 15.0205 48.433 15.18C48.161 15.336 47.808 15.414 47.375 15.414C47.136 15.4152 46.898 15.3828 46.668 15.318C46.444 15.254 46.248 15.155 46.082 15.021C45.916 14.887 45.782 14.716 45.684 14.506C45.586 14.296 45.534 14.048 45.534 13.756C45.534 13.374 45.619 13.062 45.79 12.821C45.9614 12.579 46.1921 12.3851 46.46 12.258C46.736 12.123 47.046 12.028 47.39 11.971C47.7371 11.9138 48.0875 11.8784 48.439 11.865L49.151 11.833V11.557C49.151 11.217 49.058 10.983 48.869 10.857C48.68 10.731 48.459 10.667 48.205 10.667C47.615 10.667 47.279 10.89 47.195 11.337L45.835 11.21C45.933 10.63 46.189 10.21 46.6 9.95C47.011 9.69 47.565 9.56199 48.26 9.56199C48.685 9.56199 49.047 9.612 49.345 9.716C49.643 9.82 49.883 9.966 50.063 10.156C50.2475 10.3536 50.3825 10.5921 50.457 10.852C50.539 11.124 50.579 11.432 50.579 11.772V15.277H49.173V14.577V14.575ZM49.141 12.801L48.481 12.833C48.169 12.846 47.917 12.879 47.726 12.929C47.535 12.979 47.386 13.041 47.286 13.115C47.186 13.189 47.113 13.275 47.079 13.375C47.045 13.475 47.026 13.585 47.026 13.705C47.026 13.889 47.09 14.035 47.216 14.14C47.342 14.245 47.521 14.3 47.746 14.3C48.13 14.3 48.442 14.212 48.682 14.034C48.817 13.934 48.928 13.808 49.012 13.657C49.096 13.506 49.139 13.315 49.139 13.089V12.802L49.141 12.801ZM51.787 9.731H53.277V15.275H51.787V9.731ZM51.767 7.691H53.297V9.029H51.767V7.691ZM54.551 7.691H56.041V15.275H54.551V7.691ZM56.708 9.731H58.324L59.101 13.406L60.163 9.78399H61.461L62.461 13.417L63.238 9.74199H64.791L63.174 15.286H61.727L60.737 11.632L59.737 15.286H58.323L56.707 9.74199L56.708 9.731ZM65.468 9.731H66.958V15.275H65.468V9.731ZM65.448 7.691H66.978V9.029H65.448V7.691ZM68.222 9.731H69.669V10.496C69.889 10.171 70.149 9.93299 70.449 9.78399C70.749 9.63499 71.064 9.561 71.389 9.561C72.021 9.561 72.489 9.72599 72.794 10.055C73.099 10.384 73.252 10.903 73.252 11.611V15.275H71.763V11.814C71.763 11.414 71.689 11.159 71.539 11.017C71.389 10.875 71.192 10.805 70.944 10.805C70.754 10.805 70.588 10.835 70.449 10.89C70.31 10.945 70.181 11.028 70.061 11.134C69.961 11.234 69.878 11.352 69.811 11.49C69.744 11.6308 69.7098 11.785 69.711 11.941V15.276H68.211V9.73199L68.222 9.731ZM78.302 14.543C78.1154 14.8277 77.8592 15.0601 77.5577 15.2181C77.2562 15.3761 76.9193 15.4546 76.579 15.446C75.799 15.446 75.219 15.184 74.834 14.66C74.449 14.136 74.26 13.41 74.26 12.483C74.2556 12.0822 74.3115 11.6831 74.426 11.299C74.536 10.941 74.693 10.633 74.899 10.375C75.1012 10.1197 75.3596 9.91434 75.654 9.775C75.954 9.635 76.289 9.563 76.664 9.563C76.94 9.563 77.214 9.613 77.487 9.713C77.76 9.813 78.017 10.013 78.259 10.287V7.695H79.749V15.279H78.303V14.546L78.302 14.543ZM78.27 12.44C78.27 12.086 78.24 11.803 78.17 11.59C78.1 11.377 78.012 11.205 77.878 11.07C77.75 10.943 77.61 10.87 77.458 10.82C77.3108 10.7815 77.1592 10.762 77.007 10.762C76.8477 10.7613 76.6899 10.794 76.544 10.858C76.398 10.922 76.272 11.021 76.161 11.155C76.05 11.289 75.964 11.467 75.901 11.685C75.838 11.903 75.805 12.165 75.805 12.471C75.805 12.803 75.835 13.081 75.905 13.305C75.975 13.529 76.048 13.709 76.155 13.847C76.262 13.985 76.385 14.084 76.527 14.144C76.669 14.204 76.822 14.244 76.985 14.244C77.339 14.244 77.63 14.141 77.857 13.936C78.0002 13.7912 78.1074 13.6148 78.17 13.421C78.236 13.219 78.27 12.959 78.27 12.641V12.451V12.44ZM89.912 12.652C89.876 13.056 89.782 13.429 89.63 13.772C89.4824 14.1081 89.2692 14.4113 89.003 14.664C88.7208 14.9258 88.3875 15.1263 88.024 15.253C87.638 15.393 87.19 15.465 86.679 15.465C86.105 15.465 85.599 15.369 85.163 15.178C84.7407 14.997 84.3659 14.7208 84.068 14.371C83.773 14.024 83.552 13.604 83.403 13.111C83.254 12.618 83.18 12.075 83.18 11.481C83.18 10.865 83.26 10.313 83.424 9.824C83.588 9.335 83.822 8.918 84.126 8.571C84.43 8.224 84.8 7.958 85.232 7.774C85.664 7.59 86.155 7.498 86.702 7.498C87.184 7.498 87.605 7.558 87.962 7.678C88.319 7.798 88.622 7.972 88.867 8.198C89.112 8.424 89.307 8.698 89.457 9.016C89.6129 9.35783 89.7235 9.71854 89.786 10.089L88.211 10.291C88.133 9.84499 87.981 9.49399 87.761 9.23899C87.541 8.98399 87.183 8.85699 86.701 8.85699C86.091 8.85699 85.628 9.085 85.314 9.542C85 9.999 84.839 10.644 84.839 11.48C84.839 12.323 85.009 12.98 85.345 13.424C85.4971 13.6407 85.7006 13.8162 85.9373 13.9349C86.174 14.0536 86.4364 14.1117 86.701 14.104C87.191 14.104 87.551 13.978 87.781 13.727C88.011 13.476 88.154 13.117 88.211 12.649L89.912 12.652ZM92.229 12.802C92.264 13.269 92.415 13.609 92.679 13.822C92.943 14.035 93.336 14.142 93.854 14.142C94.102 14.142 94.312 14.115 94.482 14.062C94.652 14.009 94.79 13.938 94.897 13.85C94.9991 13.7674 95.0777 13.6595 95.125 13.537C95.1722 13.4114 95.1956 13.2781 95.194 13.144C95.194 12.944 95.121 12.759 94.972 12.586C94.823 12.413 94.55 12.286 94.152 12.209L93.162 12.029C92.762 11.959 92.428 11.866 92.13 11.753C91.832 11.64 91.582 11.493 91.38 11.313C91.178 11.133 91.024 10.911 90.918 10.649C90.812 10.387 90.758 10.075 90.758 9.71399C90.7515 9.3823 90.8263 9.05406 90.976 8.758C91.1205 8.48325 91.3282 8.24676 91.582 8.068C91.842 7.884 92.152 7.74399 92.512 7.64799C92.872 7.55199 93.272 7.505 93.704 7.505C94.257 7.505 94.718 7.569 95.087 7.695C95.456 7.821 95.754 7.99 95.981 8.2C96.208 8.41 96.376 8.65 96.486 8.928C96.596 9.206 96.669 9.491 96.706 9.788L95.206 9.97799C95.128 9.55999 94.978 9.258 94.756 9.075C94.534 8.892 94.194 8.799 93.74 8.799C93.47 8.799 93.25 8.822 93.075 8.869C92.9 8.916 92.761 8.975 92.655 9.049C92.5574 9.11286 92.4797 9.20298 92.431 9.309C92.389 9.409 92.367 9.51099 92.367 9.61699C92.367 9.89999 92.447 10.113 92.607 10.254C92.767 10.395 93.037 10.506 93.42 10.584L94.462 10.786C95.285 10.949 95.888 11.213 96.272 11.576C96.656 11.939 96.846 12.476 96.846 13.153C96.846 13.485 96.784 13.793 96.66 14.073C96.5329 14.3559 96.3435 14.6065 96.106 14.806C95.8358 15.0293 95.5232 15.1956 95.187 15.295C94.819 15.412 94.387 15.47 93.889 15.47C92.853 15.47 92.061 15.25 91.512 14.806C90.963 14.362 90.666 13.706 90.612 12.804H92.218L92.229 12.802ZM99.129 12.802C99.164 13.269 99.315 13.609 99.579 13.822C99.843 14.035 100.239 14.142 100.754 14.142C101.004 14.142 101.212 14.115 101.384 14.062C101.556 14.009 101.692 13.938 101.799 13.85C101.901 13.7674 101.98 13.6595 102.027 13.537C102.074 13.4114 102.098 13.2781 102.096 13.144C102.093 12.9369 102.014 12.7381 101.873 12.586C101.723 12.413 101.451 12.286 101.053 12.209L100.063 12.029C99.663 11.959 99.329 11.866 99.031 11.753C98.733 11.64 98.483 11.493 98.281 11.313C98.079 11.133 97.925 10.911 97.818 10.649C97.711 10.387 97.658 10.075 97.658 9.71399C97.6515 9.3823 97.7263 9.05406 97.876 8.758C98.022 8.482 98.224 8.25099 98.482 8.05799C98.74 7.86499 99.052 7.73399 99.412 7.63799C99.772 7.54199 100.172 7.495 100.604 7.495C101.157 7.495 101.618 7.559 101.987 7.685C102.356 7.811 102.653 7.97999 102.881 8.18999C103.109 8.39999 103.277 8.64 103.386 8.918C103.495 9.196 103.569 9.481 103.606 9.778L102.106 9.96799C102.028 9.54999 101.878 9.24799 101.656 9.06499C101.434 8.88199 101.094 8.789 100.64 8.789C100.37 8.789 100.15 8.812 99.975 8.859C99.8 8.906 99.661 8.965 99.555 9.039C99.4574 9.10286 99.3797 9.19298 99.331 9.299C99.288 9.399 99.267 9.50099 99.267 9.60699C99.267 9.88999 99.347 10.103 99.507 10.244C99.667 10.385 99.937 10.496 100.321 10.574L101.373 10.784C102.196 10.947 102.799 11.211 103.183 11.574C103.567 11.937 103.757 12.474 103.757 13.151C103.761 13.467 103.697 13.7802 103.571 14.07C103.444 14.3531 103.255 14.6037 103.017 14.803C102.773 15.013 102.467 15.175 102.097 15.293C101.727 15.411 101.297 15.468 100.8 15.468C99.764 15.468 98.972 15.248 98.422 14.804C97.872 14.36 97.576 13.704 97.534 12.802H99.129Z" fill="#334155"/>
</svg>
